%TF.GenerationSoftware,KiCad,Pcbnew,6.0.2+dfsg-1*%
%TF.CreationDate,2022-10-25T22:35:24-05:00*%
%TF.ProjectId,amiplanta,616d6970-6c61-46e7-9461-2e6b69636164,rev?*%
%TF.SameCoordinates,Original*%
%TF.FileFunction,Paste,Top*%
%TF.FilePolarity,Positive*%
%FSLAX46Y46*%
G04 Gerber Fmt 4.6, Leading zero omitted, Abs format (unit mm)*
G04 Created by KiCad (PCBNEW 6.0.2+dfsg-1) date 2022-10-25 22:35:24*
%MOMM*%
%LPD*%
G01*
G04 APERTURE LIST*
G04 Aperture macros list*
%AMRoundRect*
0 Rectangle with rounded corners*
0 $1 Rounding radius*
0 $2 $3 $4 $5 $6 $7 $8 $9 X,Y pos of 4 corners*
0 Add a 4 corners polygon primitive as box body*
4,1,4,$2,$3,$4,$5,$6,$7,$8,$9,$2,$3,0*
0 Add four circle primitives for the rounded corners*
1,1,$1+$1,$2,$3*
1,1,$1+$1,$4,$5*
1,1,$1+$1,$6,$7*
1,1,$1+$1,$8,$9*
0 Add four rect primitives between the rounded corners*
20,1,$1+$1,$2,$3,$4,$5,0*
20,1,$1+$1,$4,$5,$6,$7,0*
20,1,$1+$1,$6,$7,$8,$9,0*
20,1,$1+$1,$8,$9,$2,$3,0*%
G04 Aperture macros list end*
%ADD10R,1.120000X2.440000*%
%ADD11R,0.800000X0.600000*%
%ADD12RoundRect,0.250000X-0.350000X-0.450000X0.350000X-0.450000X0.350000X0.450000X-0.350000X0.450000X0*%
%ADD13R,1.550000X1.300000*%
%ADD14R,2.000000X0.900000*%
%ADD15R,0.900000X2.000000*%
%ADD16R,5.000000X5.000000*%
%ADD17R,1.300000X0.450000*%
%ADD18R,1.100000X1.100000*%
%ADD19RoundRect,0.250000X-0.337500X-0.475000X0.337500X-0.475000X0.337500X0.475000X-0.337500X0.475000X0*%
%ADD20R,0.400000X0.480000*%
G04 APERTURE END LIST*
D10*
%TO.C,SWin1*%
X104140000Y-99835000D03*
X104140000Y-108445000D03*
%TD*%
D11*
%TO.C,Q2*%
X54870000Y-87950000D03*
X54870000Y-89850000D03*
X56890000Y-88900000D03*
%TD*%
D12*
%TO.C,RRTS1*%
X47260000Y-78740000D03*
X49260000Y-78740000D03*
%TD*%
D13*
%TO.C,SWEnable1*%
X97625000Y-46010000D03*
X105575000Y-46010000D03*
X97625000Y-50510000D03*
X105575000Y-50510000D03*
%TD*%
D12*
%TO.C,RED1*%
X102140000Y-96520000D03*
X104140000Y-96520000D03*
%TD*%
%TO.C,RDTR1*%
X47260000Y-83820000D03*
X49260000Y-83820000D03*
%TD*%
D14*
%TO.C,U3*%
X60080000Y-55415000D03*
X60080000Y-56685000D03*
X60080000Y-57955000D03*
X60080000Y-59225000D03*
X60080000Y-60495000D03*
X60080000Y-61765000D03*
X60080000Y-63035000D03*
X60080000Y-64305000D03*
X60080000Y-65575000D03*
X60080000Y-66845000D03*
X60080000Y-68115000D03*
X60080000Y-69385000D03*
X60080000Y-70655000D03*
X60080000Y-71925000D03*
D15*
X62865000Y-72925000D03*
X64135000Y-72925000D03*
X65405000Y-72925000D03*
X66675000Y-72925000D03*
X67945000Y-72925000D03*
X69215000Y-72925000D03*
X70485000Y-72925000D03*
X71755000Y-72925000D03*
X73025000Y-72925000D03*
X74295000Y-72925000D03*
D14*
X77080000Y-71925000D03*
X77080000Y-70655000D03*
X77080000Y-69385000D03*
X77080000Y-68115000D03*
X77080000Y-66845000D03*
X77080000Y-65575000D03*
X77080000Y-64305000D03*
X77080000Y-63035000D03*
X77080000Y-61765000D03*
X77080000Y-60495000D03*
X77080000Y-59225000D03*
X77080000Y-57955000D03*
X77080000Y-56685000D03*
X77080000Y-55415000D03*
D16*
X67580000Y-62915000D03*
%TD*%
D17*
%TO.C,J2*%
X99700000Y-80040000D03*
X99700000Y-79390000D03*
X99700000Y-78740000D03*
X99700000Y-78090000D03*
X99700000Y-77440000D03*
%TD*%
D12*
%TO.C,rsda1*%
X49800000Y-71120000D03*
X51800000Y-71120000D03*
%TD*%
%TO.C,RRXD0*%
X65040000Y-81280000D03*
X67040000Y-81280000D03*
%TD*%
D18*
%TO.C,Din1*%
X83820000Y-67440000D03*
X83820000Y-64640000D03*
%TD*%
D12*
%TO.C,Rtemp1*%
X44720000Y-63500000D03*
X46720000Y-63500000D03*
%TD*%
D13*
%TO.C,SWBoot1*%
X97625000Y-53630000D03*
X105575000Y-53630000D03*
X97625000Y-58130000D03*
X105575000Y-58130000D03*
%TD*%
D12*
%TO.C,Rvbus1*%
X47260000Y-93980000D03*
X49260000Y-93980000D03*
%TD*%
%TO.C,R_rstbl1*%
X67580000Y-86360000D03*
X69580000Y-86360000D03*
%TD*%
D19*
%TO.C,Cfeed1*%
X49762500Y-60960000D03*
X51837500Y-60960000D03*
%TD*%
D11*
%TO.C,Q1*%
X54870000Y-80330000D03*
X54870000Y-82230000D03*
X56890000Y-81280000D03*
%TD*%
D12*
%TO.C,RTXD0*%
X72660000Y-81280000D03*
X74660000Y-81280000D03*
%TD*%
D20*
%TO.C,Dinl1*%
X88900000Y-66700000D03*
X88900000Y-65380000D03*
%TD*%
D12*
%TO.C,rscl1*%
X49800000Y-66040000D03*
X51800000Y-66040000D03*
%TD*%
D19*
%TO.C,Cfeed2*%
X49762500Y-55880000D03*
X51837500Y-55880000D03*
%TD*%
D12*
%TO.C,Rvbus2*%
X47260000Y-88900000D03*
X49260000Y-88900000D03*
%TD*%
M02*
