%TF.GenerationSoftware,KiCad,Pcbnew,6.0.2+dfsg-1*%
%TF.CreationDate,2022-10-25T22:35:24-05:00*%
%TF.ProjectId,amiplanta,616d6970-6c61-46e7-9461-2e6b69636164,rev?*%
%TF.SameCoordinates,Original*%
%TF.FileFunction,Legend,Bot*%
%TF.FilePolarity,Positive*%
%FSLAX46Y46*%
G04 Gerber Fmt 4.6, Leading zero omitted, Abs format (unit mm)*
G04 Created by KiCad (PCBNEW 6.0.2+dfsg-1) date 2022-10-25 22:35:24*
%MOMM*%
%LPD*%
G01*
G04 APERTURE LIST*
%ADD10C,0.100000*%
%ADD11C,0.025000*%
%ADD12C,0.150000*%
%ADD13C,0.080000*%
%ADD14C,0.120000*%
%ADD15C,0.127000*%
%ADD16C,0.200000*%
G04 APERTURE END LIST*
D10*
%TO.C,U2*%
X79016190Y-92783047D02*
X79206666Y-92783047D01*
X79206666Y-93183047D01*
X78654285Y-92783047D02*
X78787619Y-92973523D01*
X78882857Y-92783047D02*
X78882857Y-93183047D01*
X78730476Y-93183047D01*
X78692380Y-93164000D01*
X78673333Y-93144952D01*
X78654285Y-93106857D01*
X78654285Y-93049714D01*
X78673333Y-93011619D01*
X78692380Y-92992571D01*
X78730476Y-92973523D01*
X78882857Y-92973523D01*
X78254285Y-92821142D02*
X78273333Y-92802095D01*
X78330476Y-92783047D01*
X78368571Y-92783047D01*
X78425714Y-92802095D01*
X78463809Y-92840190D01*
X78482857Y-92878285D01*
X78501904Y-92954476D01*
X78501904Y-93011619D01*
X78482857Y-93087809D01*
X78463809Y-93125904D01*
X78425714Y-93164000D01*
X78368571Y-93183047D01*
X78330476Y-93183047D01*
X78273333Y-93164000D01*
X78254285Y-93144952D01*
D11*
X94389523Y-93183047D02*
X94256190Y-92783047D01*
X94122857Y-93183047D01*
X93989523Y-92783047D02*
X93989523Y-93049714D01*
X93989523Y-93183047D02*
X94008571Y-93164000D01*
X93989523Y-93144952D01*
X93970476Y-93164000D01*
X93989523Y-93183047D01*
X93989523Y-93144952D01*
X93799047Y-93049714D02*
X93799047Y-92783047D01*
X93799047Y-93011619D02*
X93780000Y-93030666D01*
X93741904Y-93049714D01*
X93684761Y-93049714D01*
X93646666Y-93030666D01*
X93627619Y-92992571D01*
X93627619Y-92783047D01*
D12*
%TO.C,UReg1*%
X58632857Y-83852380D02*
X58632857Y-84661904D01*
X58585238Y-84757142D01*
X58537619Y-84804761D01*
X58442380Y-84852380D01*
X58251904Y-84852380D01*
X58156666Y-84804761D01*
X58109047Y-84757142D01*
X58061428Y-84661904D01*
X58061428Y-83852380D01*
X57013809Y-84852380D02*
X57347142Y-84376190D01*
X57585238Y-84852380D02*
X57585238Y-83852380D01*
X57204285Y-83852380D01*
X57109047Y-83900000D01*
X57061428Y-83947619D01*
X57013809Y-84042857D01*
X57013809Y-84185714D01*
X57061428Y-84280952D01*
X57109047Y-84328571D01*
X57204285Y-84376190D01*
X57585238Y-84376190D01*
X56204285Y-84804761D02*
X56299523Y-84852380D01*
X56490000Y-84852380D01*
X56585238Y-84804761D01*
X56632857Y-84709523D01*
X56632857Y-84328571D01*
X56585238Y-84233333D01*
X56490000Y-84185714D01*
X56299523Y-84185714D01*
X56204285Y-84233333D01*
X56156666Y-84328571D01*
X56156666Y-84423809D01*
X56632857Y-84519047D01*
X55299523Y-84185714D02*
X55299523Y-84995238D01*
X55347142Y-85090476D01*
X55394761Y-85138095D01*
X55490000Y-85185714D01*
X55632857Y-85185714D01*
X55728095Y-85138095D01*
X55299523Y-84804761D02*
X55394761Y-84852380D01*
X55585238Y-84852380D01*
X55680476Y-84804761D01*
X55728095Y-84757142D01*
X55775714Y-84661904D01*
X55775714Y-84376190D01*
X55728095Y-84280952D01*
X55680476Y-84233333D01*
X55585238Y-84185714D01*
X55394761Y-84185714D01*
X55299523Y-84233333D01*
X54299523Y-84852380D02*
X54870952Y-84852380D01*
X54585238Y-84852380D02*
X54585238Y-83852380D01*
X54680476Y-83995238D01*
X54775714Y-84090476D01*
X54870952Y-84138095D01*
%TO.C,DUSB1*%
X96788223Y-77275619D02*
X96148223Y-77275619D01*
X96148223Y-77428000D01*
X96178700Y-77519428D01*
X96239652Y-77580380D01*
X96300604Y-77610857D01*
X96422509Y-77641333D01*
X96513938Y-77641333D01*
X96635842Y-77610857D01*
X96696795Y-77580380D01*
X96757747Y-77519428D01*
X96788223Y-77428000D01*
X96788223Y-77275619D01*
X96148223Y-77915619D02*
X96666319Y-77915619D01*
X96727271Y-77946095D01*
X96757747Y-77976571D01*
X96788223Y-78037523D01*
X96788223Y-78159428D01*
X96757747Y-78220380D01*
X96727271Y-78250857D01*
X96666319Y-78281333D01*
X96148223Y-78281333D01*
X96757747Y-78555619D02*
X96788223Y-78647047D01*
X96788223Y-78799428D01*
X96757747Y-78860380D01*
X96727271Y-78890857D01*
X96666319Y-78921333D01*
X96605366Y-78921333D01*
X96544414Y-78890857D01*
X96513938Y-78860380D01*
X96483461Y-78799428D01*
X96452985Y-78677523D01*
X96422509Y-78616571D01*
X96392033Y-78586095D01*
X96331080Y-78555619D01*
X96270128Y-78555619D01*
X96209176Y-78586095D01*
X96178700Y-78616571D01*
X96148223Y-78677523D01*
X96148223Y-78829904D01*
X96178700Y-78921333D01*
X96452985Y-79408952D02*
X96483461Y-79500380D01*
X96513938Y-79530857D01*
X96574890Y-79561333D01*
X96666319Y-79561333D01*
X96727271Y-79530857D01*
X96757747Y-79500380D01*
X96788223Y-79439428D01*
X96788223Y-79195619D01*
X96148223Y-79195619D01*
X96148223Y-79408952D01*
X96178700Y-79469904D01*
X96209176Y-79500380D01*
X96270128Y-79530857D01*
X96331080Y-79530857D01*
X96392033Y-79500380D01*
X96422509Y-79469904D01*
X96452985Y-79408952D01*
X96452985Y-79195619D01*
X96788223Y-80170857D02*
X96788223Y-79805142D01*
X96788223Y-79988000D02*
X96148223Y-79988000D01*
X96239652Y-79927047D01*
X96300604Y-79866095D01*
X96331080Y-79805142D01*
%TO.C,Cbl2*%
X74540952Y-80507142D02*
X74588571Y-80554761D01*
X74731428Y-80602380D01*
X74826666Y-80602380D01*
X74969523Y-80554761D01*
X75064761Y-80459523D01*
X75112380Y-80364285D01*
X75160000Y-80173809D01*
X75160000Y-80030952D01*
X75112380Y-79840476D01*
X75064761Y-79745238D01*
X74969523Y-79650000D01*
X74826666Y-79602380D01*
X74731428Y-79602380D01*
X74588571Y-79650000D01*
X74540952Y-79697619D01*
X74112380Y-80602380D02*
X74112380Y-79602380D01*
X74112380Y-79983333D02*
X74017142Y-79935714D01*
X73826666Y-79935714D01*
X73731428Y-79983333D01*
X73683809Y-80030952D01*
X73636190Y-80126190D01*
X73636190Y-80411904D01*
X73683809Y-80507142D01*
X73731428Y-80554761D01*
X73826666Y-80602380D01*
X74017142Y-80602380D01*
X74112380Y-80554761D01*
X73064761Y-80602380D02*
X73160000Y-80554761D01*
X73207619Y-80459523D01*
X73207619Y-79602380D01*
X72731428Y-79697619D02*
X72683809Y-79650000D01*
X72588571Y-79602380D01*
X72350476Y-79602380D01*
X72255238Y-79650000D01*
X72207619Y-79697619D01*
X72160000Y-79792857D01*
X72160000Y-79888095D01*
X72207619Y-80030952D01*
X72779047Y-80602380D01*
X72160000Y-80602380D01*
%TO.C,Ractbl1*%
X92059919Y-72462380D02*
X92393252Y-71986190D01*
X92631347Y-72462380D02*
X92631347Y-71462380D01*
X92250395Y-71462380D01*
X92155157Y-71510000D01*
X92107538Y-71557619D01*
X92059919Y-71652857D01*
X92059919Y-71795714D01*
X92107538Y-71890952D01*
X92155157Y-71938571D01*
X92250395Y-71986190D01*
X92631347Y-71986190D01*
X91202776Y-72462380D02*
X91202776Y-71938571D01*
X91250395Y-71843333D01*
X91345633Y-71795714D01*
X91536109Y-71795714D01*
X91631347Y-71843333D01*
X91202776Y-72414761D02*
X91298014Y-72462380D01*
X91536109Y-72462380D01*
X91631347Y-72414761D01*
X91678966Y-72319523D01*
X91678966Y-72224285D01*
X91631347Y-72129047D01*
X91536109Y-72081428D01*
X91298014Y-72081428D01*
X91202776Y-72033809D01*
X90298014Y-72414761D02*
X90393252Y-72462380D01*
X90583728Y-72462380D01*
X90678966Y-72414761D01*
X90726585Y-72367142D01*
X90774204Y-72271904D01*
X90774204Y-71986190D01*
X90726585Y-71890952D01*
X90678966Y-71843333D01*
X90583728Y-71795714D01*
X90393252Y-71795714D01*
X90298014Y-71843333D01*
X90012300Y-71795714D02*
X89631347Y-71795714D01*
X89869442Y-71462380D02*
X89869442Y-72319523D01*
X89821823Y-72414761D01*
X89726585Y-72462380D01*
X89631347Y-72462380D01*
X89298014Y-72462380D02*
X89298014Y-71462380D01*
X89298014Y-71843333D02*
X89202776Y-71795714D01*
X89012300Y-71795714D01*
X88917061Y-71843333D01*
X88869442Y-71890952D01*
X88821823Y-71986190D01*
X88821823Y-72271904D01*
X88869442Y-72367142D01*
X88917061Y-72414761D01*
X89012300Y-72462380D01*
X89202776Y-72462380D01*
X89298014Y-72414761D01*
X88250395Y-72462380D02*
X88345633Y-72414761D01*
X88393252Y-72319523D01*
X88393252Y-71462380D01*
X87345633Y-72462380D02*
X87917061Y-72462380D01*
X87631347Y-72462380D02*
X87631347Y-71462380D01*
X87726585Y-71605238D01*
X87821823Y-71700476D01*
X87917061Y-71748095D01*
%TO.C,Rpw1*%
X41982380Y-87757142D02*
X41506190Y-87423809D01*
X41982380Y-87185714D02*
X40982380Y-87185714D01*
X40982380Y-87566666D01*
X41030000Y-87661904D01*
X41077619Y-87709523D01*
X41172857Y-87757142D01*
X41315714Y-87757142D01*
X41410952Y-87709523D01*
X41458571Y-87661904D01*
X41506190Y-87566666D01*
X41506190Y-87185714D01*
X41315714Y-88185714D02*
X42315714Y-88185714D01*
X41363333Y-88185714D02*
X41315714Y-88280952D01*
X41315714Y-88471428D01*
X41363333Y-88566666D01*
X41410952Y-88614285D01*
X41506190Y-88661904D01*
X41791904Y-88661904D01*
X41887142Y-88614285D01*
X41934761Y-88566666D01*
X41982380Y-88471428D01*
X41982380Y-88280952D01*
X41934761Y-88185714D01*
X41315714Y-88995238D02*
X41982380Y-89185714D01*
X41506190Y-89376190D01*
X41982380Y-89566666D01*
X41315714Y-89757142D01*
X41982380Y-90661904D02*
X41982380Y-90090476D01*
X41982380Y-90376190D02*
X40982380Y-90376190D01*
X41125238Y-90280952D01*
X41220476Y-90185714D01*
X41268095Y-90090476D01*
D13*
%TO.C,DUl2*%
X91110261Y-83466380D02*
X90790261Y-83466380D01*
X90790261Y-83542571D01*
X90805500Y-83588285D01*
X90835976Y-83618761D01*
X90866452Y-83634000D01*
X90927404Y-83649238D01*
X90973119Y-83649238D01*
X91034071Y-83634000D01*
X91064547Y-83618761D01*
X91095023Y-83588285D01*
X91110261Y-83542571D01*
X91110261Y-83466380D01*
X90790261Y-83786380D02*
X91049309Y-83786380D01*
X91079785Y-83801619D01*
X91095023Y-83816857D01*
X91110261Y-83847333D01*
X91110261Y-83908285D01*
X91095023Y-83938761D01*
X91079785Y-83954000D01*
X91049309Y-83969238D01*
X90790261Y-83969238D01*
X91110261Y-84167333D02*
X91095023Y-84136857D01*
X91064547Y-84121619D01*
X90790261Y-84121619D01*
X90820738Y-84274000D02*
X90805500Y-84289238D01*
X90790261Y-84319714D01*
X90790261Y-84395904D01*
X90805500Y-84426380D01*
X90820738Y-84441619D01*
X90851214Y-84456857D01*
X90881690Y-84456857D01*
X90927404Y-84441619D01*
X91110261Y-84258761D01*
X91110261Y-84456857D01*
%TO.C,DUl3*%
X95713919Y-83011561D02*
X95713919Y-82691561D01*
X95637728Y-82691561D01*
X95592014Y-82706800D01*
X95561538Y-82737276D01*
X95546300Y-82767752D01*
X95531061Y-82828704D01*
X95531061Y-82874419D01*
X95546300Y-82935371D01*
X95561538Y-82965847D01*
X95592014Y-82996323D01*
X95637728Y-83011561D01*
X95713919Y-83011561D01*
X95393919Y-82691561D02*
X95393919Y-82950609D01*
X95378680Y-82981085D01*
X95363442Y-82996323D01*
X95332966Y-83011561D01*
X95272014Y-83011561D01*
X95241538Y-82996323D01*
X95226300Y-82981085D01*
X95211061Y-82950609D01*
X95211061Y-82691561D01*
X95012966Y-83011561D02*
X95043442Y-82996323D01*
X95058680Y-82965847D01*
X95058680Y-82691561D01*
X94921538Y-82691561D02*
X94723442Y-82691561D01*
X94830109Y-82813466D01*
X94784395Y-82813466D01*
X94753919Y-82828704D01*
X94738680Y-82843942D01*
X94723442Y-82874419D01*
X94723442Y-82950609D01*
X94738680Y-82981085D01*
X94753919Y-82996323D01*
X94784395Y-83011561D01*
X94875823Y-83011561D01*
X94906300Y-82996323D01*
X94921538Y-82981085D01*
%TO.C,DUl1*%
X91110261Y-78386380D02*
X90790261Y-78386380D01*
X90790261Y-78462571D01*
X90805500Y-78508285D01*
X90835976Y-78538761D01*
X90866452Y-78554000D01*
X90927404Y-78569238D01*
X90973119Y-78569238D01*
X91034071Y-78554000D01*
X91064547Y-78538761D01*
X91095023Y-78508285D01*
X91110261Y-78462571D01*
X91110261Y-78386380D01*
X90790261Y-78706380D02*
X91049309Y-78706380D01*
X91079785Y-78721619D01*
X91095023Y-78736857D01*
X91110261Y-78767333D01*
X91110261Y-78828285D01*
X91095023Y-78858761D01*
X91079785Y-78874000D01*
X91049309Y-78889238D01*
X90790261Y-78889238D01*
X91110261Y-79087333D02*
X91095023Y-79056857D01*
X91064547Y-79041619D01*
X90790261Y-79041619D01*
X91110261Y-79376857D02*
X91110261Y-79194000D01*
X91110261Y-79285428D02*
X90790261Y-79285428D01*
X90835976Y-79254952D01*
X90866452Y-79224476D01*
X90881690Y-79194000D01*
D12*
%TO.C,U7*%
X82041904Y-79472380D02*
X82041904Y-80281904D01*
X81994285Y-80377142D01*
X81946666Y-80424761D01*
X81851428Y-80472380D01*
X81660952Y-80472380D01*
X81565714Y-80424761D01*
X81518095Y-80377142D01*
X81470476Y-80281904D01*
X81470476Y-79472380D01*
X81089523Y-79472380D02*
X80422857Y-79472380D01*
X80851428Y-80472380D01*
%TO.C,CReg2*%
X49807619Y-85037142D02*
X49855238Y-85084761D01*
X49998095Y-85132380D01*
X50093333Y-85132380D01*
X50236190Y-85084761D01*
X50331428Y-84989523D01*
X50379047Y-84894285D01*
X50426666Y-84703809D01*
X50426666Y-84560952D01*
X50379047Y-84370476D01*
X50331428Y-84275238D01*
X50236190Y-84180000D01*
X50093333Y-84132380D01*
X49998095Y-84132380D01*
X49855238Y-84180000D01*
X49807619Y-84227619D01*
X48807619Y-85132380D02*
X49140952Y-84656190D01*
X49379047Y-85132380D02*
X49379047Y-84132380D01*
X48998095Y-84132380D01*
X48902857Y-84180000D01*
X48855238Y-84227619D01*
X48807619Y-84322857D01*
X48807619Y-84465714D01*
X48855238Y-84560952D01*
X48902857Y-84608571D01*
X48998095Y-84656190D01*
X49379047Y-84656190D01*
X47998095Y-85084761D02*
X48093333Y-85132380D01*
X48283809Y-85132380D01*
X48379047Y-85084761D01*
X48426666Y-84989523D01*
X48426666Y-84608571D01*
X48379047Y-84513333D01*
X48283809Y-84465714D01*
X48093333Y-84465714D01*
X47998095Y-84513333D01*
X47950476Y-84608571D01*
X47950476Y-84703809D01*
X48426666Y-84799047D01*
X47093333Y-84465714D02*
X47093333Y-85275238D01*
X47140952Y-85370476D01*
X47188571Y-85418095D01*
X47283809Y-85465714D01*
X47426666Y-85465714D01*
X47521904Y-85418095D01*
X47093333Y-85084761D02*
X47188571Y-85132380D01*
X47379047Y-85132380D01*
X47474285Y-85084761D01*
X47521904Y-85037142D01*
X47569523Y-84941904D01*
X47569523Y-84656190D01*
X47521904Y-84560952D01*
X47474285Y-84513333D01*
X47379047Y-84465714D01*
X47188571Y-84465714D01*
X47093333Y-84513333D01*
X46664761Y-84227619D02*
X46617142Y-84180000D01*
X46521904Y-84132380D01*
X46283809Y-84132380D01*
X46188571Y-84180000D01*
X46140952Y-84227619D01*
X46093333Y-84322857D01*
X46093333Y-84418095D01*
X46140952Y-84560952D01*
X46712380Y-85132380D01*
X46093333Y-85132380D01*
%TO.C,Cen2*%
X89947619Y-46937142D02*
X89995238Y-46984761D01*
X90138095Y-47032380D01*
X90233333Y-47032380D01*
X90376190Y-46984761D01*
X90471428Y-46889523D01*
X90519047Y-46794285D01*
X90566666Y-46603809D01*
X90566666Y-46460952D01*
X90519047Y-46270476D01*
X90471428Y-46175238D01*
X90376190Y-46080000D01*
X90233333Y-46032380D01*
X90138095Y-46032380D01*
X89995238Y-46080000D01*
X89947619Y-46127619D01*
X89138095Y-46984761D02*
X89233333Y-47032380D01*
X89423809Y-47032380D01*
X89519047Y-46984761D01*
X89566666Y-46889523D01*
X89566666Y-46508571D01*
X89519047Y-46413333D01*
X89423809Y-46365714D01*
X89233333Y-46365714D01*
X89138095Y-46413333D01*
X89090476Y-46508571D01*
X89090476Y-46603809D01*
X89566666Y-46699047D01*
X88661904Y-46365714D02*
X88661904Y-47032380D01*
X88661904Y-46460952D02*
X88614285Y-46413333D01*
X88519047Y-46365714D01*
X88376190Y-46365714D01*
X88280952Y-46413333D01*
X88233333Y-46508571D01*
X88233333Y-47032380D01*
X87804761Y-46127619D02*
X87757142Y-46080000D01*
X87661904Y-46032380D01*
X87423809Y-46032380D01*
X87328571Y-46080000D01*
X87280952Y-46127619D01*
X87233333Y-46222857D01*
X87233333Y-46318095D01*
X87280952Y-46460952D01*
X87852380Y-47032380D01*
X87233333Y-47032380D01*
%TO.C,Cboot1*%
X90709523Y-60457142D02*
X90757142Y-60504761D01*
X90900000Y-60552380D01*
X90995238Y-60552380D01*
X91138095Y-60504761D01*
X91233333Y-60409523D01*
X91280952Y-60314285D01*
X91328571Y-60123809D01*
X91328571Y-59980952D01*
X91280952Y-59790476D01*
X91233333Y-59695238D01*
X91138095Y-59600000D01*
X90995238Y-59552380D01*
X90900000Y-59552380D01*
X90757142Y-59600000D01*
X90709523Y-59647619D01*
X90280952Y-60552380D02*
X90280952Y-59552380D01*
X90280952Y-59933333D02*
X90185714Y-59885714D01*
X89995238Y-59885714D01*
X89900000Y-59933333D01*
X89852380Y-59980952D01*
X89804761Y-60076190D01*
X89804761Y-60361904D01*
X89852380Y-60457142D01*
X89900000Y-60504761D01*
X89995238Y-60552380D01*
X90185714Y-60552380D01*
X90280952Y-60504761D01*
X89233333Y-60552380D02*
X89328571Y-60504761D01*
X89376190Y-60457142D01*
X89423809Y-60361904D01*
X89423809Y-60076190D01*
X89376190Y-59980952D01*
X89328571Y-59933333D01*
X89233333Y-59885714D01*
X89090476Y-59885714D01*
X88995238Y-59933333D01*
X88947619Y-59980952D01*
X88900000Y-60076190D01*
X88900000Y-60361904D01*
X88947619Y-60457142D01*
X88995238Y-60504761D01*
X89090476Y-60552380D01*
X89233333Y-60552380D01*
X88328571Y-60552380D02*
X88423809Y-60504761D01*
X88471428Y-60457142D01*
X88519047Y-60361904D01*
X88519047Y-60076190D01*
X88471428Y-59980952D01*
X88423809Y-59933333D01*
X88328571Y-59885714D01*
X88185714Y-59885714D01*
X88090476Y-59933333D01*
X88042857Y-59980952D01*
X87995238Y-60076190D01*
X87995238Y-60361904D01*
X88042857Y-60457142D01*
X88090476Y-60504761D01*
X88185714Y-60552380D01*
X88328571Y-60552380D01*
X87709523Y-59885714D02*
X87328571Y-59885714D01*
X87566666Y-59552380D02*
X87566666Y-60409523D01*
X87519047Y-60504761D01*
X87423809Y-60552380D01*
X87328571Y-60552380D01*
X86471428Y-60552380D02*
X87042857Y-60552380D01*
X86757142Y-60552380D02*
X86757142Y-59552380D01*
X86852380Y-59695238D01*
X86947619Y-59790476D01*
X87042857Y-59838095D01*
%TO.C,Camp1*%
X85558095Y-102817142D02*
X85605714Y-102864761D01*
X85748571Y-102912380D01*
X85843809Y-102912380D01*
X85986666Y-102864761D01*
X86081904Y-102769523D01*
X86129523Y-102674285D01*
X86177142Y-102483809D01*
X86177142Y-102340952D01*
X86129523Y-102150476D01*
X86081904Y-102055238D01*
X85986666Y-101960000D01*
X85843809Y-101912380D01*
X85748571Y-101912380D01*
X85605714Y-101960000D01*
X85558095Y-102007619D01*
X84700952Y-102912380D02*
X84700952Y-102388571D01*
X84748571Y-102293333D01*
X84843809Y-102245714D01*
X85034285Y-102245714D01*
X85129523Y-102293333D01*
X84700952Y-102864761D02*
X84796190Y-102912380D01*
X85034285Y-102912380D01*
X85129523Y-102864761D01*
X85177142Y-102769523D01*
X85177142Y-102674285D01*
X85129523Y-102579047D01*
X85034285Y-102531428D01*
X84796190Y-102531428D01*
X84700952Y-102483809D01*
X84224761Y-102912380D02*
X84224761Y-102245714D01*
X84224761Y-102340952D02*
X84177142Y-102293333D01*
X84081904Y-102245714D01*
X83939047Y-102245714D01*
X83843809Y-102293333D01*
X83796190Y-102388571D01*
X83796190Y-102912380D01*
X83796190Y-102388571D02*
X83748571Y-102293333D01*
X83653333Y-102245714D01*
X83510476Y-102245714D01*
X83415238Y-102293333D01*
X83367619Y-102388571D01*
X83367619Y-102912380D01*
X82891428Y-102245714D02*
X82891428Y-103245714D01*
X82891428Y-102293333D02*
X82796190Y-102245714D01*
X82605714Y-102245714D01*
X82510476Y-102293333D01*
X82462857Y-102340952D01*
X82415238Y-102436190D01*
X82415238Y-102721904D01*
X82462857Y-102817142D01*
X82510476Y-102864761D01*
X82605714Y-102912380D01*
X82796190Y-102912380D01*
X82891428Y-102864761D01*
X81462857Y-102912380D02*
X82034285Y-102912380D01*
X81748571Y-102912380D02*
X81748571Y-101912380D01*
X81843809Y-102055238D01*
X81939047Y-102150476D01*
X82034285Y-102198095D01*
%TO.C,Ren1*%
X89947619Y-41982380D02*
X90280952Y-41506190D01*
X90519047Y-41982380D02*
X90519047Y-40982380D01*
X90138095Y-40982380D01*
X90042857Y-41030000D01*
X89995238Y-41077619D01*
X89947619Y-41172857D01*
X89947619Y-41315714D01*
X89995238Y-41410952D01*
X90042857Y-41458571D01*
X90138095Y-41506190D01*
X90519047Y-41506190D01*
X89138095Y-41934761D02*
X89233333Y-41982380D01*
X89423809Y-41982380D01*
X89519047Y-41934761D01*
X89566666Y-41839523D01*
X89566666Y-41458571D01*
X89519047Y-41363333D01*
X89423809Y-41315714D01*
X89233333Y-41315714D01*
X89138095Y-41363333D01*
X89090476Y-41458571D01*
X89090476Y-41553809D01*
X89566666Y-41649047D01*
X88661904Y-41315714D02*
X88661904Y-41982380D01*
X88661904Y-41410952D02*
X88614285Y-41363333D01*
X88519047Y-41315714D01*
X88376190Y-41315714D01*
X88280952Y-41363333D01*
X88233333Y-41458571D01*
X88233333Y-41982380D01*
X87233333Y-41982380D02*
X87804761Y-41982380D01*
X87519047Y-41982380D02*
X87519047Y-40982380D01*
X87614285Y-41125238D01*
X87709523Y-41220476D01*
X87804761Y-41268095D01*
%TO.C,Cbl1*%
X74540952Y-85037142D02*
X74588571Y-85084761D01*
X74731428Y-85132380D01*
X74826666Y-85132380D01*
X74969523Y-85084761D01*
X75064761Y-84989523D01*
X75112380Y-84894285D01*
X75160000Y-84703809D01*
X75160000Y-84560952D01*
X75112380Y-84370476D01*
X75064761Y-84275238D01*
X74969523Y-84180000D01*
X74826666Y-84132380D01*
X74731428Y-84132380D01*
X74588571Y-84180000D01*
X74540952Y-84227619D01*
X74112380Y-85132380D02*
X74112380Y-84132380D01*
X74112380Y-84513333D02*
X74017142Y-84465714D01*
X73826666Y-84465714D01*
X73731428Y-84513333D01*
X73683809Y-84560952D01*
X73636190Y-84656190D01*
X73636190Y-84941904D01*
X73683809Y-85037142D01*
X73731428Y-85084761D01*
X73826666Y-85132380D01*
X74017142Y-85132380D01*
X74112380Y-85084761D01*
X73064761Y-85132380D02*
X73160000Y-85084761D01*
X73207619Y-84989523D01*
X73207619Y-84132380D01*
X72160000Y-85132380D02*
X72731428Y-85132380D01*
X72445714Y-85132380D02*
X72445714Y-84132380D01*
X72540952Y-84275238D01*
X72636190Y-84370476D01*
X72731428Y-84418095D01*
%TO.C,Rboot1*%
X90709523Y-55442380D02*
X91042857Y-54966190D01*
X91280952Y-55442380D02*
X91280952Y-54442380D01*
X90900000Y-54442380D01*
X90804761Y-54490000D01*
X90757142Y-54537619D01*
X90709523Y-54632857D01*
X90709523Y-54775714D01*
X90757142Y-54870952D01*
X90804761Y-54918571D01*
X90900000Y-54966190D01*
X91280952Y-54966190D01*
X90280952Y-55442380D02*
X90280952Y-54442380D01*
X90280952Y-54823333D02*
X90185714Y-54775714D01*
X89995238Y-54775714D01*
X89900000Y-54823333D01*
X89852380Y-54870952D01*
X89804761Y-54966190D01*
X89804761Y-55251904D01*
X89852380Y-55347142D01*
X89900000Y-55394761D01*
X89995238Y-55442380D01*
X90185714Y-55442380D01*
X90280952Y-55394761D01*
X89233333Y-55442380D02*
X89328571Y-55394761D01*
X89376190Y-55347142D01*
X89423809Y-55251904D01*
X89423809Y-54966190D01*
X89376190Y-54870952D01*
X89328571Y-54823333D01*
X89233333Y-54775714D01*
X89090476Y-54775714D01*
X88995238Y-54823333D01*
X88947619Y-54870952D01*
X88900000Y-54966190D01*
X88900000Y-55251904D01*
X88947619Y-55347142D01*
X88995238Y-55394761D01*
X89090476Y-55442380D01*
X89233333Y-55442380D01*
X88328571Y-55442380D02*
X88423809Y-55394761D01*
X88471428Y-55347142D01*
X88519047Y-55251904D01*
X88519047Y-54966190D01*
X88471428Y-54870952D01*
X88423809Y-54823333D01*
X88328571Y-54775714D01*
X88185714Y-54775714D01*
X88090476Y-54823333D01*
X88042857Y-54870952D01*
X87995238Y-54966190D01*
X87995238Y-55251904D01*
X88042857Y-55347142D01*
X88090476Y-55394761D01*
X88185714Y-55442380D01*
X88328571Y-55442380D01*
X87709523Y-54775714D02*
X87328571Y-54775714D01*
X87566666Y-54442380D02*
X87566666Y-55299523D01*
X87519047Y-55394761D01*
X87423809Y-55442380D01*
X87328571Y-55442380D01*
X86471428Y-55442380D02*
X87042857Y-55442380D01*
X86757142Y-55442380D02*
X86757142Y-54442380D01*
X86852380Y-54585238D01*
X86947619Y-54680476D01*
X87042857Y-54728095D01*
%TO.C,CReg1*%
X49807619Y-90117142D02*
X49855238Y-90164761D01*
X49998095Y-90212380D01*
X50093333Y-90212380D01*
X50236190Y-90164761D01*
X50331428Y-90069523D01*
X50379047Y-89974285D01*
X50426666Y-89783809D01*
X50426666Y-89640952D01*
X50379047Y-89450476D01*
X50331428Y-89355238D01*
X50236190Y-89260000D01*
X50093333Y-89212380D01*
X49998095Y-89212380D01*
X49855238Y-89260000D01*
X49807619Y-89307619D01*
X48807619Y-90212380D02*
X49140952Y-89736190D01*
X49379047Y-90212380D02*
X49379047Y-89212380D01*
X48998095Y-89212380D01*
X48902857Y-89260000D01*
X48855238Y-89307619D01*
X48807619Y-89402857D01*
X48807619Y-89545714D01*
X48855238Y-89640952D01*
X48902857Y-89688571D01*
X48998095Y-89736190D01*
X49379047Y-89736190D01*
X47998095Y-90164761D02*
X48093333Y-90212380D01*
X48283809Y-90212380D01*
X48379047Y-90164761D01*
X48426666Y-90069523D01*
X48426666Y-89688571D01*
X48379047Y-89593333D01*
X48283809Y-89545714D01*
X48093333Y-89545714D01*
X47998095Y-89593333D01*
X47950476Y-89688571D01*
X47950476Y-89783809D01*
X48426666Y-89879047D01*
X47093333Y-89545714D02*
X47093333Y-90355238D01*
X47140952Y-90450476D01*
X47188571Y-90498095D01*
X47283809Y-90545714D01*
X47426666Y-90545714D01*
X47521904Y-90498095D01*
X47093333Y-90164761D02*
X47188571Y-90212380D01*
X47379047Y-90212380D01*
X47474285Y-90164761D01*
X47521904Y-90117142D01*
X47569523Y-90021904D01*
X47569523Y-89736190D01*
X47521904Y-89640952D01*
X47474285Y-89593333D01*
X47379047Y-89545714D01*
X47188571Y-89545714D01*
X47093333Y-89593333D01*
X46093333Y-90212380D02*
X46664761Y-90212380D01*
X46379047Y-90212380D02*
X46379047Y-89212380D01*
X46474285Y-89355238D01*
X46569523Y-89450476D01*
X46664761Y-89498095D01*
%TO.C,Camp2*%
X90638095Y-102817142D02*
X90685714Y-102864761D01*
X90828571Y-102912380D01*
X90923809Y-102912380D01*
X91066666Y-102864761D01*
X91161904Y-102769523D01*
X91209523Y-102674285D01*
X91257142Y-102483809D01*
X91257142Y-102340952D01*
X91209523Y-102150476D01*
X91161904Y-102055238D01*
X91066666Y-101960000D01*
X90923809Y-101912380D01*
X90828571Y-101912380D01*
X90685714Y-101960000D01*
X90638095Y-102007619D01*
X89780952Y-102912380D02*
X89780952Y-102388571D01*
X89828571Y-102293333D01*
X89923809Y-102245714D01*
X90114285Y-102245714D01*
X90209523Y-102293333D01*
X89780952Y-102864761D02*
X89876190Y-102912380D01*
X90114285Y-102912380D01*
X90209523Y-102864761D01*
X90257142Y-102769523D01*
X90257142Y-102674285D01*
X90209523Y-102579047D01*
X90114285Y-102531428D01*
X89876190Y-102531428D01*
X89780952Y-102483809D01*
X89304761Y-102912380D02*
X89304761Y-102245714D01*
X89304761Y-102340952D02*
X89257142Y-102293333D01*
X89161904Y-102245714D01*
X89019047Y-102245714D01*
X88923809Y-102293333D01*
X88876190Y-102388571D01*
X88876190Y-102912380D01*
X88876190Y-102388571D02*
X88828571Y-102293333D01*
X88733333Y-102245714D01*
X88590476Y-102245714D01*
X88495238Y-102293333D01*
X88447619Y-102388571D01*
X88447619Y-102912380D01*
X87971428Y-102245714D02*
X87971428Y-103245714D01*
X87971428Y-102293333D02*
X87876190Y-102245714D01*
X87685714Y-102245714D01*
X87590476Y-102293333D01*
X87542857Y-102340952D01*
X87495238Y-102436190D01*
X87495238Y-102721904D01*
X87542857Y-102817142D01*
X87590476Y-102864761D01*
X87685714Y-102912380D01*
X87876190Y-102912380D01*
X87971428Y-102864761D01*
X87114285Y-102007619D02*
X87066666Y-101960000D01*
X86971428Y-101912380D01*
X86733333Y-101912380D01*
X86638095Y-101960000D01*
X86590476Y-102007619D01*
X86542857Y-102102857D01*
X86542857Y-102198095D01*
X86590476Y-102340952D01*
X87161904Y-102912380D01*
X86542857Y-102912380D01*
D14*
%TO.C,UReg1*%
X60590000Y-85490000D02*
X54580000Y-85490000D01*
X54580000Y-92310000D02*
X54580000Y-91050000D01*
X58340000Y-92310000D02*
X54580000Y-92310000D01*
X54580000Y-85490000D02*
X54580000Y-86750000D01*
D15*
%TO.C,DUSB1*%
X94442300Y-79590000D02*
X94442300Y-77890000D01*
X95742300Y-77890000D02*
X95742300Y-79590000D01*
D16*
X95192300Y-80940000D02*
G75*
G03*
X95192300Y-80940000I-100000J0D01*
G01*
D14*
%TO.C,Cbl2*%
X73921252Y-81095000D02*
X73398748Y-81095000D01*
X73921252Y-82565000D02*
X73398748Y-82565000D01*
%TO.C,Ractbl1*%
X90239364Y-72925000D02*
X89785236Y-72925000D01*
X90239364Y-74395000D02*
X89785236Y-74395000D01*
%TO.C,Rpw1*%
X42445000Y-88672936D02*
X42445000Y-89127064D01*
X43915000Y-88672936D02*
X43915000Y-89127064D01*
D15*
%TO.C,DUl2*%
X90532300Y-84420000D02*
X90532300Y-83220000D01*
X89492300Y-83220000D02*
X89492300Y-84420000D01*
D16*
X90112300Y-85320000D02*
G75*
G03*
X90112300Y-85320000I-100000J0D01*
G01*
D15*
%TO.C,DUl3*%
X94492300Y-84340000D02*
X95692300Y-84340000D01*
X95692300Y-83300000D02*
X94492300Y-83300000D01*
D16*
X96692300Y-83820000D02*
G75*
G03*
X96692300Y-83820000I-100000J0D01*
G01*
D15*
%TO.C,DUl1*%
X90532300Y-79340000D02*
X90532300Y-78140000D01*
X89492300Y-78140000D02*
X89492300Y-79340000D01*
D16*
X90112300Y-80240000D02*
G75*
G03*
X90112300Y-80240000I-100000J0D01*
G01*
D14*
%TO.C,U7*%
X78670000Y-81210000D02*
X78670000Y-81935000D01*
X83890000Y-86430000D02*
X83890000Y-85705000D01*
X78670000Y-86430000D02*
X78670000Y-85705000D01*
X83165000Y-81210000D02*
X83890000Y-81210000D01*
X83165000Y-86430000D02*
X83890000Y-86430000D01*
X79395000Y-81210000D02*
X78670000Y-81210000D01*
X79395000Y-86430000D02*
X78670000Y-86430000D01*
%TO.C,CReg2*%
X48521252Y-87095000D02*
X47998748Y-87095000D01*
X48521252Y-85625000D02*
X47998748Y-85625000D01*
%TO.C,Cen2*%
X89161252Y-48995000D02*
X88638748Y-48995000D01*
X89161252Y-47525000D02*
X88638748Y-47525000D01*
%TO.C,Cboot1*%
X88638748Y-57685000D02*
X89161252Y-57685000D01*
X88638748Y-59155000D02*
X89161252Y-59155000D01*
%TO.C,Camp1*%
X84081252Y-104875000D02*
X83558748Y-104875000D01*
X84081252Y-103405000D02*
X83558748Y-103405000D01*
%TO.C,Ren1*%
X89127064Y-42445000D02*
X88672936Y-42445000D01*
X89127064Y-43915000D02*
X88672936Y-43915000D01*
%TO.C,Cbl1*%
X73921252Y-87095000D02*
X73398748Y-87095000D01*
X73921252Y-85625000D02*
X73398748Y-85625000D01*
%TO.C,Rboot1*%
X88672936Y-52605000D02*
X89127064Y-52605000D01*
X88672936Y-54075000D02*
X89127064Y-54075000D01*
%TO.C,CReg1*%
X48521252Y-90705000D02*
X47998748Y-90705000D01*
X48521252Y-92175000D02*
X47998748Y-92175000D01*
%TO.C,Camp2*%
X89161252Y-103405000D02*
X88638748Y-103405000D01*
X89161252Y-104875000D02*
X88638748Y-104875000D01*
%TD*%
M02*
