%TF.GenerationSoftware,KiCad,Pcbnew,6.0.2+dfsg-1*%
%TF.CreationDate,2022-10-25T22:12:17-05:00*%
%TF.ProjectId,amiplanta,616d6970-6c61-46e7-9461-2e6b69636164,rev?*%
%TF.SameCoordinates,Original*%
%TF.FileFunction,Paste,Bot*%
%TF.FilePolarity,Positive*%
%FSLAX46Y46*%
G04 Gerber Fmt 4.6, Leading zero omitted, Abs format (unit mm)*
G04 Created by KiCad (PCBNEW 6.0.2+dfsg-1) date 2022-10-25 22:12:17*
%MOMM*%
%LPD*%
G01*
G04 APERTURE LIST*
G04 Aperture macros list*
%AMRoundRect*
0 Rectangle with rounded corners*
0 $1 Rounding radius*
0 $2 $3 $4 $5 $6 $7 $8 $9 X,Y pos of 4 corners*
0 Add a 4 corners polygon primitive as box body*
4,1,4,$2,$3,$4,$5,$6,$7,$8,$9,$2,$3,0*
0 Add four circle primitives for the rounded corners*
1,1,$1+$1,$2,$3*
1,1,$1+$1,$4,$5*
1,1,$1+$1,$6,$7*
1,1,$1+$1,$8,$9*
0 Add four rect primitives between the rounded corners*
20,1,$1+$1,$2,$3,$4,$5,0*
20,1,$1+$1,$4,$5,$6,$7,0*
20,1,$1+$1,$6,$7,$8,$9,0*
20,1,$1+$1,$8,$9,$2,$3,0*%
G04 Aperture macros list end*
%ADD10R,2.000000X1.500000*%
%ADD11R,2.000000X3.800000*%
%ADD12R,0.460000X1.040000*%
%ADD13RoundRect,0.250000X0.337500X0.475000X-0.337500X0.475000X-0.337500X-0.475000X0.337500X-0.475000X0*%
%ADD14RoundRect,0.250000X0.350000X0.450000X-0.350000X0.450000X-0.350000X-0.450000X0.350000X-0.450000X0*%
%ADD15RoundRect,0.250000X-0.450000X0.350000X-0.450000X-0.350000X0.450000X-0.350000X0.450000X0.350000X0*%
%ADD16R,0.400000X0.480000*%
%ADD17R,0.480000X0.400000*%
%ADD18RoundRect,0.225000X0.225000X0.225000X-0.225000X0.225000X-0.225000X-0.225000X0.225000X-0.225000X0*%
%ADD19RoundRect,0.062500X0.337500X0.062500X-0.337500X0.062500X-0.337500X-0.062500X0.337500X-0.062500X0*%
%ADD20RoundRect,0.062500X0.062500X0.337500X-0.062500X0.337500X-0.062500X-0.337500X0.062500X-0.337500X0*%
%ADD21RoundRect,0.250000X-0.337500X-0.475000X0.337500X-0.475000X0.337500X0.475000X-0.337500X0.475000X0*%
%ADD22RoundRect,0.250000X-0.350000X-0.450000X0.350000X-0.450000X0.350000X0.450000X-0.350000X0.450000X0*%
G04 APERTURE END LIST*
D10*
%TO.C,UReg1*%
X59640000Y-86600000D03*
X59640000Y-88900000D03*
D11*
X53340000Y-88900000D03*
D10*
X59640000Y-91200000D03*
%TD*%
D12*
%TO.C,DUSB1*%
X95092300Y-77550000D03*
X95092300Y-79930000D03*
%TD*%
D13*
%TO.C,Cbl2*%
X74697500Y-81830000D03*
X72622500Y-81830000D03*
%TD*%
D14*
%TO.C,Ractbl1*%
X91012300Y-73660000D03*
X89012300Y-73660000D03*
%TD*%
D15*
%TO.C,Rpw1*%
X43180000Y-87900000D03*
X43180000Y-89900000D03*
%TD*%
D16*
%TO.C,DUl2*%
X90012300Y-84480000D03*
X90012300Y-83160000D03*
%TD*%
D17*
%TO.C,DUl3*%
X95752300Y-83820000D03*
X94432300Y-83820000D03*
%TD*%
D16*
%TO.C,DUl1*%
X90012300Y-79400000D03*
X90012300Y-78080000D03*
%TD*%
D18*
%TO.C,U7*%
X80160000Y-82700000D03*
X80160000Y-84940000D03*
X80160000Y-83820000D03*
X82400000Y-82700000D03*
X81280000Y-82700000D03*
X81280000Y-84940000D03*
X81280000Y-83820000D03*
X82400000Y-84940000D03*
X82400000Y-83820000D03*
D19*
X83730000Y-82320000D03*
X83730000Y-82820000D03*
X83730000Y-83320000D03*
X83730000Y-83820000D03*
X83730000Y-84320000D03*
X83730000Y-84820000D03*
X83730000Y-85320000D03*
D20*
X82780000Y-86270000D03*
X82280000Y-86270000D03*
X81780000Y-86270000D03*
X81280000Y-86270000D03*
X80780000Y-86270000D03*
X80280000Y-86270000D03*
X79780000Y-86270000D03*
D19*
X78830000Y-85320000D03*
X78830000Y-84820000D03*
X78830000Y-84320000D03*
X78830000Y-83820000D03*
X78830000Y-83320000D03*
X78830000Y-82820000D03*
X78830000Y-82320000D03*
D20*
X79780000Y-81370000D03*
X80280000Y-81370000D03*
X80780000Y-81370000D03*
X81280000Y-81370000D03*
X81780000Y-81370000D03*
X82280000Y-81370000D03*
X82780000Y-81370000D03*
%TD*%
D13*
%TO.C,CReg2*%
X49297500Y-86360000D03*
X47222500Y-86360000D03*
%TD*%
%TO.C,Cen2*%
X89937500Y-48260000D03*
X87862500Y-48260000D03*
%TD*%
D21*
%TO.C,Cboot1*%
X87862500Y-58420000D03*
X89937500Y-58420000D03*
%TD*%
D13*
%TO.C,Camp1*%
X84857500Y-104140000D03*
X82782500Y-104140000D03*
%TD*%
D14*
%TO.C,Ren1*%
X89900000Y-43180000D03*
X87900000Y-43180000D03*
%TD*%
D13*
%TO.C,Cbl1*%
X74697500Y-86360000D03*
X72622500Y-86360000D03*
%TD*%
D22*
%TO.C,Rboot1*%
X87900000Y-53340000D03*
X89900000Y-53340000D03*
%TD*%
D13*
%TO.C,CReg1*%
X49297500Y-91440000D03*
X47222500Y-91440000D03*
%TD*%
%TO.C,Camp2*%
X89937500Y-104140000D03*
X87862500Y-104140000D03*
%TD*%
M02*
