M48
; DRILL file {KiCad 6.0.2+dfsg-1} date mar 25 oct 2022 22:14:59
; FORMAT={-:-/ absolute / metric / decimal}
; #@! TF.CreationDate,2022-10-25T22:14:59-05:00
; #@! TF.GenerationSoftware,Kicad,Pcbnew,6.0.2+dfsg-1
; #@! TF.FileFunction,Plated,1,2,PTH
FMAT,2
METRIC
; #@! TA.AperFunction,Plated,PTH,ViaDrill
T1C0.400
; #@! TA.AperFunction,Plated,PTH,ViaDrill
T2C0.500
; #@! TA.AperFunction,Plated,PTH,ComponentDrill
T3C0.550
; #@! TA.AperFunction,Plated,PTH,ComponentDrill
T4C0.650
; #@! TA.AperFunction,Plated,PTH,ComponentDrill
T5C0.850
; #@! TA.AperFunction,Plated,PTH,ComponentDrill
T6C1.000
; #@! TA.AperFunction,Plated,PTH,ComponentDrill
T7C1.700
; #@! TA.AperFunction,Plated,PTH,ComponentDrill
T8C1.800
; #@! TA.AperFunction,Plated,PTH,ComponentDrill
T9C2.540
; #@! TA.AperFunction,Plated,PTH,ComponentDrill
T10C3.700
%
G90
G05
T1
X37.439Y-66.417
X37.439Y-82.143
X39.25Y-73.5
X42.294Y-97.64
X43.5Y-79.5
X44.5Y-68.0
X45.25Y-88.25
X47.658Y-82.188
X48.315Y-87.531
X49.074Y-95.284
X52.75Y-68.75
X53.25Y-75.75
X53.815Y-82.23
X54.5Y-60.0
X54.874Y-69.114
X56.691Y-63.035
X56.77Y-61.765
X57.0Y-94.75
X57.0Y-98.25
X57.479Y-68.115
X58.187Y-78.74
X58.431Y-69.468
X58.459Y-83.061
X58.474Y-66.82
X58.68Y-72.828
X58.75Y-75.25
X62.393Y-83.59
X62.75Y-68.5
X62.78Y-89.657
X63.192Y-86.822
X64.0Y-94.5
X64.354Y-92.293
X66.275Y-59.273
X66.586Y-71.231
X67.264Y-94.615
X68.081Y-100.933
X70.0Y-76.5
X70.053Y-95.773
X71.788Y-93.444
X72.242Y-83.188
X72.25Y-71.0
X76.147Y-87.119
X77.19Y-82.469
X77.989Y-90.88
X80.16Y-62.197
X80.75Y-74.25
X81.28Y-87.343
X82.632Y-96.404
X82.723Y-78.72
X83.664Y-80.51
X83.863Y-81.49
X88.25Y-88.5
X90.012Y-81.479
X90.895Y-54.407
X90.925Y-46.087
X91.5Y-77.0
X93.216Y-85.244
X93.216Y-87.25
X93.5Y-72.75
X96.215Y-80.192
X97.063Y-79.587
X97.915Y-82.762
X98.5Y-108.75
X99.074Y-90.993
T2
X49.662Y-67.508
X54.61Y-85.09
X55.88Y-58.42
X76.058Y-85.0
X83.676Y-86.216
X86.146Y-98.633
X93.453Y-79.221
T4
X78.74Y-94.615
X81.28Y-94.615
X83.82Y-94.615
X86.36Y-94.615
X88.9Y-94.615
X91.44Y-94.615
X93.98Y-94.615
T6
X104.14Y-86.36
X104.14Y-88.9
X104.14Y-91.44
T7
X33.125Y-56.14
X33.125Y-60.1
X33.125Y-64.06
X33.125Y-68.02
X33.125Y-71.98
X33.125Y-75.94
X33.125Y-82.4
X33.125Y-86.36
X33.125Y-90.32
X33.125Y-97.64
X33.125Y-101.6
X33.125Y-105.56
X44.3Y-104.035
X48.26Y-104.035
X52.22Y-104.035
T8
X60.1Y-104.14
X64.06Y-104.14
X68.02Y-104.14
X71.98Y-104.14
T9
X80.01Y-108.585
X92.71Y-108.585
T10
X28.05Y-46.6
T3
X103.225Y-74.865G85X103.875Y-74.865
G05
X103.225Y-82.615G85X103.875Y-82.615
G05
T5
X99.475Y-75.015G85X100.025Y-75.015
G05
X99.475Y-82.465G85X100.025Y-82.465
G05
T6
X99.06Y-64.082G85X99.06Y-66.082
G05
X101.06Y-69.782G85X103.06Y-69.782
G05
X105.06Y-64.082G85X105.06Y-66.082
G05
T0
M30
