%TF.GenerationSoftware,KiCad,Pcbnew,6.0.2+dfsg-1*%
%TF.CreationDate,2022-10-25T22:06:19-05:00*%
%TF.ProjectId,amiplanta,616d6970-6c61-46e7-9461-2e6b69636164,rev?*%
%TF.SameCoordinates,Original*%
%TF.FileFunction,Soldermask,Bot*%
%TF.FilePolarity,Negative*%
%FSLAX46Y46*%
G04 Gerber Fmt 4.6, Leading zero omitted, Abs format (unit mm)*
G04 Created by KiCad (PCBNEW 6.0.2+dfsg-1) date 2022-10-25 22:06:19*
%MOMM*%
%LPD*%
G01*
G04 APERTURE LIST*
G04 Aperture macros list*
%AMRoundRect*
0 Rectangle with rounded corners*
0 $1 Rounding radius*
0 $2 $3 $4 $5 $6 $7 $8 $9 X,Y pos of 4 corners*
0 Add a 4 corners polygon primitive as box body*
4,1,4,$2,$3,$4,$5,$6,$7,$8,$9,$2,$3,0*
0 Add four circle primitives for the rounded corners*
1,1,$1+$1,$2,$3*
1,1,$1+$1,$4,$5*
1,1,$1+$1,$6,$7*
1,1,$1+$1,$8,$9*
0 Add four rect primitives between the rounded corners*
20,1,$1+$1,$2,$3,$4,$5,0*
20,1,$1+$1,$4,$5,$6,$7,0*
20,1,$1+$1,$6,$7,$8,$9,0*
20,1,$1+$1,$8,$9,$2,$3,0*%
G04 Aperture macros list end*
%ADD10RoundRect,0.250000X1.800000X-1.330000X1.800000X1.330000X-1.800000X1.330000X-1.800000X-1.330000X0*%
%ADD11O,4.100000X3.160000*%
%ADD12C,3.810000*%
%ADD13C,1.500000*%
%ADD14R,3.500000X3.500000*%
%ADD15RoundRect,0.750000X-0.750000X-1.000000X0.750000X-1.000000X0.750000X1.000000X-0.750000X1.000000X0*%
%ADD16RoundRect,0.875000X-0.875000X-0.875000X0.875000X-0.875000X0.875000X0.875000X-0.875000X0.875000X0*%
%ADD17O,0.800000X0.800000*%
%ADD18O,1.800000X1.150000*%
%ADD19O,2.000000X1.450000*%
%ADD20R,1.700000X1.700000*%
%ADD21O,1.700000X1.700000*%
%ADD22C,7.400000*%
%ADD23RoundRect,0.250000X1.330000X1.850000X-1.330000X1.850000X-1.330000X-1.850000X1.330000X-1.850000X0*%
%ADD24O,3.160000X4.200000*%
%ADD25RoundRect,0.250000X1.330000X1.800000X-1.330000X1.800000X-1.330000X-1.800000X1.330000X-1.800000X0*%
%ADD26O,3.160000X4.100000*%
%ADD27R,2.000000X1.500000*%
%ADD28R,2.000000X3.800000*%
%ADD29R,0.460000X1.040000*%
%ADD30RoundRect,0.250000X0.337500X0.475000X-0.337500X0.475000X-0.337500X-0.475000X0.337500X-0.475000X0*%
%ADD31RoundRect,0.250000X0.350000X0.450000X-0.350000X0.450000X-0.350000X-0.450000X0.350000X-0.450000X0*%
%ADD32RoundRect,0.250000X-0.450000X0.350000X-0.450000X-0.350000X0.450000X-0.350000X0.450000X0.350000X0*%
%ADD33R,0.400000X0.480000*%
%ADD34R,0.480000X0.400000*%
%ADD35RoundRect,0.062500X0.337500X0.062500X-0.337500X0.062500X-0.337500X-0.062500X0.337500X-0.062500X0*%
%ADD36RoundRect,0.062500X0.062500X0.337500X-0.062500X0.337500X-0.062500X-0.337500X0.062500X-0.337500X0*%
%ADD37R,3.350000X3.350000*%
%ADD38RoundRect,0.250000X-0.337500X-0.475000X0.337500X-0.475000X0.337500X0.475000X-0.337500X0.475000X0*%
%ADD39RoundRect,0.250000X-0.350000X-0.450000X0.350000X-0.450000X0.350000X0.450000X-0.350000X0.450000X0*%
G04 APERTURE END LIST*
D10*
%TO.C,Jtem1*%
X33125000Y-90320000D03*
D11*
X33125000Y-86360000D03*
X33125000Y-82400000D03*
%TD*%
D12*
%TO.C,U2*%
X92710000Y-108585000D03*
X80010000Y-108585000D03*
D13*
X93980000Y-94615000D03*
X91440000Y-94615000D03*
X88900000Y-94615000D03*
X86360000Y-94615000D03*
X83820000Y-94615000D03*
X81280000Y-94615000D03*
X78740000Y-94615000D03*
%TD*%
D14*
%TO.C,J1*%
X105060000Y-65082500D03*
D15*
X99060000Y-65082500D03*
D16*
X102060000Y-69782500D03*
%TD*%
D10*
%TO.C,Jmov1*%
X33125000Y-105560000D03*
D11*
X33125000Y-101600000D03*
X33125000Y-97640000D03*
%TD*%
D17*
%TO.C,J2*%
X100800000Y-81240000D03*
X100800000Y-76240000D03*
D18*
X103550000Y-74865000D03*
X103550000Y-82615000D03*
D19*
X99750000Y-75015000D03*
X99750000Y-82465000D03*
%TD*%
D20*
%TO.C,J3*%
X104140000Y-91440000D03*
D21*
X104140000Y-88900000D03*
X104140000Y-86360000D03*
%TD*%
D22*
%TO.C,REF\u002A\u002A*%
X28050000Y-46600000D03*
%TD*%
D23*
%TO.C,Joled1*%
X71980000Y-104140000D03*
D24*
X68020000Y-104140000D03*
X64060000Y-104140000D03*
X60100000Y-104140000D03*
%TD*%
D25*
%TO.C,Jhum1*%
X52220000Y-104035000D03*
D26*
X48260000Y-104035000D03*
X44300000Y-104035000D03*
%TD*%
D10*
%TO.C,Jluc1*%
X33125000Y-75940000D03*
D11*
X33125000Y-71980000D03*
X33125000Y-68020000D03*
X33125000Y-64060000D03*
X33125000Y-60100000D03*
X33125000Y-56140000D03*
%TD*%
D27*
%TO.C,UReg1*%
X59640000Y-86600000D03*
X59640000Y-88900000D03*
D28*
X53340000Y-88900000D03*
D27*
X59640000Y-91200000D03*
%TD*%
D29*
%TO.C,DUSB1*%
X95092300Y-77550000D03*
X95092300Y-79930000D03*
%TD*%
D30*
%TO.C,Cbl2*%
X74697500Y-81830000D03*
X72622500Y-81830000D03*
%TD*%
D31*
%TO.C,Ractbl1*%
X91012300Y-73660000D03*
X89012300Y-73660000D03*
%TD*%
D32*
%TO.C,Rpw1*%
X43180000Y-87900000D03*
X43180000Y-89900000D03*
%TD*%
D33*
%TO.C,DUl2*%
X90012300Y-84480000D03*
X90012300Y-83160000D03*
%TD*%
D34*
%TO.C,DUl3*%
X95752300Y-83820000D03*
X94432300Y-83820000D03*
%TD*%
D33*
%TO.C,DUl1*%
X90012300Y-79400000D03*
X90012300Y-78080000D03*
%TD*%
D35*
%TO.C,U7*%
X83730000Y-82320000D03*
X83730000Y-82820000D03*
X83730000Y-83320000D03*
X83730000Y-83820000D03*
X83730000Y-84320000D03*
X83730000Y-84820000D03*
X83730000Y-85320000D03*
D36*
X82780000Y-86270000D03*
X82280000Y-86270000D03*
X81780000Y-86270000D03*
X81280000Y-86270000D03*
X80780000Y-86270000D03*
X80280000Y-86270000D03*
X79780000Y-86270000D03*
D35*
X78830000Y-85320000D03*
X78830000Y-84820000D03*
X78830000Y-84320000D03*
X78830000Y-83820000D03*
X78830000Y-83320000D03*
X78830000Y-82820000D03*
X78830000Y-82320000D03*
D36*
X79780000Y-81370000D03*
X80280000Y-81370000D03*
X80780000Y-81370000D03*
X81280000Y-81370000D03*
X81780000Y-81370000D03*
X82280000Y-81370000D03*
X82780000Y-81370000D03*
D37*
X81280000Y-83820000D03*
%TD*%
D30*
%TO.C,CReg2*%
X49297500Y-86360000D03*
X47222500Y-86360000D03*
%TD*%
%TO.C,Cen2*%
X89937500Y-48260000D03*
X87862500Y-48260000D03*
%TD*%
D38*
%TO.C,Cboot1*%
X87862500Y-58420000D03*
X89937500Y-58420000D03*
%TD*%
D30*
%TO.C,Camp1*%
X84857500Y-104140000D03*
X82782500Y-104140000D03*
%TD*%
D31*
%TO.C,Ren1*%
X89900000Y-43180000D03*
X87900000Y-43180000D03*
%TD*%
D30*
%TO.C,Cbl1*%
X74697500Y-86360000D03*
X72622500Y-86360000D03*
%TD*%
D39*
%TO.C,Rboot1*%
X87900000Y-53340000D03*
X89900000Y-53340000D03*
%TD*%
D30*
%TO.C,CReg1*%
X49297500Y-91440000D03*
X47222500Y-91440000D03*
%TD*%
%TO.C,Camp2*%
X89937500Y-104140000D03*
X87862500Y-104140000D03*
%TD*%
M02*
