%FSLAX45Y45*%
G04 Gerber Fmt 4.5, Leading zero omitted, Abs format (unit mm)*
G04 Created by KiCad (PCBNEW 6.0.2+dfsg-1) date 2022-10-25 22:15:01*
%MOMM*%
%LPD*%
G01*
G04 APERTURE LIST*
%TA.AperFunction,Profile*%
%ADD10C,0.050000*%
%TD*%
%ADD11C,0.200000*%
%ADD12C,0.040000*%
%ADD13C,0.050000*%
%ADD14C,0.055000*%
%ADD15C,0.065000*%
%ADD16C,0.085000*%
%ADD17C,0.100000*%
%ADD18C,0.170000*%
%ADD19C,0.180000*%
%ADD20C,0.254000*%
%ADD21C,0.370000*%
G04 APERTURE END LIST*
D10*
X10922000Y-11176000D02*
X2540000Y-11176000D01*
X2286000Y-4064000D02*
X10922000Y-4064000D01*
X2540000Y-11176000D02*
X2286000Y-11176000D01*
X10922000Y-4064000D02*
X10922000Y-11176000D01*
X2286000Y-11176000D02*
X2286000Y-4064000D01*
D11*
D12*
X3723870Y-6621730D02*
X3763870Y-6661730D01*
X3763870Y-6621730D02*
X3723870Y-6661730D01*
X3723870Y-8194270D02*
X3763870Y-8234270D01*
X3763870Y-8194270D02*
X3723870Y-8234270D01*
X3905000Y-7330000D02*
X3945000Y-7370000D01*
X3945000Y-7330000D02*
X3905000Y-7370000D01*
X4209380Y-9744000D02*
X4249380Y-9784000D01*
X4249380Y-9744000D02*
X4209380Y-9784000D01*
X4330000Y-7930000D02*
X4370000Y-7970000D01*
X4370000Y-7930000D02*
X4330000Y-7970000D01*
X4430000Y-6780000D02*
X4470000Y-6820000D01*
X4470000Y-6780000D02*
X4430000Y-6820000D01*
X4505000Y-8805000D02*
X4545000Y-8845000D01*
X4545000Y-8805000D02*
X4505000Y-8845000D01*
X4745800Y-8198850D02*
X4785800Y-8238850D01*
X4785800Y-8198850D02*
X4745800Y-8238850D01*
X4811520Y-8733090D02*
X4851520Y-8773090D01*
X4851520Y-8733090D02*
X4811520Y-8773090D01*
X4887430Y-9508400D02*
X4927430Y-9548400D01*
X4927430Y-9508400D02*
X4887430Y-9548400D01*
X5255000Y-6855000D02*
X5295000Y-6895000D01*
X5295000Y-6855000D02*
X5255000Y-6895000D01*
X5305000Y-7555000D02*
X5345000Y-7595000D01*
X5345000Y-7555000D02*
X5305000Y-7595000D01*
X5361530Y-8203000D02*
X5401530Y-8243000D01*
X5401530Y-8203000D02*
X5361530Y-8243000D01*
X5430000Y-5980000D02*
X5470000Y-6020000D01*
X5470000Y-5980000D02*
X5430000Y-6020000D01*
X5467420Y-6891420D02*
X5507420Y-6931420D01*
X5507420Y-6891420D02*
X5467420Y-6931420D01*
X5649100Y-6283500D02*
X5689100Y-6323500D01*
X5689100Y-6283500D02*
X5649100Y-6323500D01*
X5657030Y-6156500D02*
X5697030Y-6196500D01*
X5697030Y-6156500D02*
X5657030Y-6196500D01*
X5680000Y-9455000D02*
X5720000Y-9495000D01*
X5720000Y-9455000D02*
X5680000Y-9495000D01*
X5680000Y-9805000D02*
X5720000Y-9845000D01*
X5720000Y-9805000D02*
X5680000Y-9845000D01*
X5727920Y-6791500D02*
X5767920Y-6831500D01*
X5767920Y-6791500D02*
X5727920Y-6831500D01*
X5798720Y-7854000D02*
X5838720Y-7894000D01*
X5838720Y-7854000D02*
X5798720Y-7894000D01*
X5823090Y-6926780D02*
X5863090Y-6966780D01*
X5863090Y-6926780D02*
X5823090Y-6966780D01*
X5825850Y-8286150D02*
X5865850Y-8326150D01*
X5865850Y-8286150D02*
X5825850Y-8326150D01*
X5827430Y-6662000D02*
X5867430Y-6702000D01*
X5867430Y-6662000D02*
X5827430Y-6702000D01*
X5847970Y-7262770D02*
X5887970Y-7302770D01*
X5887970Y-7262770D02*
X5847970Y-7302770D01*
X5855000Y-7505000D02*
X5895000Y-7545000D01*
X5895000Y-7505000D02*
X5855000Y-7545000D01*
X6219260Y-8339050D02*
X6259260Y-8379050D01*
X6259260Y-8339050D02*
X6219260Y-8379050D01*
X6255000Y-6830000D02*
X6295000Y-6870000D01*
X6295000Y-6830000D02*
X6255000Y-6870000D01*
X6258000Y-8945680D02*
X6298000Y-8985680D01*
X6298000Y-8945680D02*
X6258000Y-8985680D01*
X6299170Y-8662180D02*
X6339170Y-8702180D01*
X6339170Y-8662180D02*
X6299170Y-8702180D01*
X6380000Y-9430000D02*
X6420000Y-9470000D01*
X6420000Y-9430000D02*
X6380000Y-9470000D01*
X6415410Y-9209320D02*
X6455410Y-9249320D01*
X6455410Y-9209320D02*
X6415410Y-9249320D01*
X6607510Y-5907310D02*
X6647510Y-5947310D01*
X6647510Y-5907310D02*
X6607510Y-5947310D01*
X6638600Y-7103110D02*
X6678600Y-7143110D01*
X6678600Y-7103110D02*
X6638600Y-7143110D01*
X6706450Y-9441500D02*
X6746450Y-9481500D01*
X6746450Y-9441500D02*
X6706450Y-9481500D01*
X6788120Y-10073320D02*
X6828120Y-10113320D01*
X6828120Y-10073320D02*
X6788120Y-10113320D01*
X6980000Y-7630000D02*
X7020000Y-7670000D01*
X7020000Y-7630000D02*
X6980000Y-7670000D01*
X6985310Y-9557280D02*
X7025310Y-9597280D01*
X7025310Y-9557280D02*
X6985310Y-9597280D01*
X7158810Y-9324400D02*
X7198810Y-9364400D01*
X7198810Y-9324400D02*
X7158810Y-9364400D01*
X7204210Y-8298840D02*
X7244210Y-8338840D01*
X7244210Y-8298840D02*
X7204210Y-8338840D01*
X7205000Y-7080000D02*
X7245000Y-7120000D01*
X7245000Y-7080000D02*
X7205000Y-7120000D01*
X7594680Y-8691920D02*
X7634680Y-8731920D01*
X7634680Y-8691920D02*
X7594680Y-8731920D01*
X7698970Y-8226859D02*
X7738970Y-8266859D01*
X7738970Y-8226859D02*
X7698970Y-8266859D01*
X7778920Y-9067980D02*
X7818920Y-9107980D01*
X7818920Y-9067980D02*
X7778920Y-9107980D01*
X7996030Y-6199670D02*
X8036030Y-6239670D01*
X8036030Y-6199670D02*
X7996030Y-6239670D01*
X8055000Y-7405000D02*
X8095000Y-7445000D01*
X8095000Y-7405000D02*
X8055000Y-7445000D01*
X8108000Y-8714250D02*
X8148000Y-8754250D01*
X8148000Y-8714250D02*
X8108000Y-8754250D01*
X8243250Y-9620370D02*
X8283250Y-9660370D01*
X8283250Y-9620370D02*
X8243250Y-9660370D01*
X8252320Y-7852010D02*
X8292320Y-7892010D01*
X8292320Y-7852010D02*
X8252320Y-7892010D01*
X8346380Y-8031020D02*
X8386380Y-8071020D01*
X8386380Y-8031020D02*
X8346380Y-8071020D01*
X8366256Y-8128974D02*
X8406256Y-8168974D01*
X8406256Y-8128974D02*
X8366256Y-8168974D01*
X8805000Y-8830000D02*
X8845000Y-8870000D01*
X8845000Y-8830000D02*
X8805000Y-8870000D01*
X8981230Y-8127860D02*
X9021230Y-8167860D01*
X9021230Y-8127860D02*
X8981230Y-8167860D01*
X9069530Y-5420660D02*
X9109530Y-5460660D01*
X9109530Y-5420660D02*
X9069530Y-5460660D01*
X9072530Y-4588670D02*
X9112530Y-4628670D01*
X9112530Y-4588670D02*
X9072530Y-4628670D01*
X9130000Y-7680000D02*
X9170000Y-7720000D01*
X9170000Y-7680000D02*
X9130000Y-7720000D01*
X9301560Y-8504410D02*
X9341560Y-8544410D01*
X9341560Y-8504410D02*
X9301560Y-8544410D01*
X9301560Y-8704980D02*
X9341560Y-8744980D01*
X9341560Y-8704980D02*
X9301560Y-8744980D01*
X9330000Y-7255000D02*
X9370000Y-7295000D01*
X9370000Y-7255000D02*
X9330000Y-7295000D01*
X9601520Y-7999250D02*
X9641520Y-8039250D01*
X9641520Y-7999250D02*
X9601520Y-8039250D01*
X9686260Y-7938690D02*
X9726260Y-7978690D01*
X9726260Y-7938690D02*
X9686260Y-7978690D01*
X9771510Y-8256190D02*
X9811510Y-8296190D01*
X9811510Y-8256190D02*
X9771510Y-8296190D01*
X9830000Y-10855000D02*
X9870000Y-10895000D01*
X9870000Y-10855000D02*
X9830000Y-10895000D01*
X9887380Y-9079270D02*
X9927380Y-9119270D01*
X9927380Y-9079270D02*
X9887380Y-9119270D01*
D13*
X4991200Y-6750780D02*
G75*
G03*
X4991200Y-6750780I-25000J0D01*
G01*
X5486000Y-8509000D02*
G75*
G03*
X5486000Y-8509000I-25000J0D01*
G01*
X5613000Y-5842000D02*
G75*
G03*
X5613000Y-5842000I-25000J0D01*
G01*
X7630760Y-8499990D02*
G75*
G03*
X7630760Y-8499990I-25000J0D01*
G01*
X8392580Y-8621640D02*
G75*
G03*
X8392580Y-8621640I-25000J0D01*
G01*
X8639640Y-9863310D02*
G75*
G03*
X8639640Y-9863310I-25000J0D01*
G01*
X9370280Y-7922080D02*
G75*
G03*
X9370280Y-7922080I-25000J0D01*
G01*
D14*
X10355000Y-7459000D02*
X10355000Y-7514000D01*
X10327500Y-7486500D02*
X10382500Y-7486500D01*
D11*
X10322500Y-7504000D02*
X10387500Y-7504000D01*
X10322500Y-7469000D02*
X10387500Y-7469000D01*
X10387500Y-7504000D02*
G75*
G03*
X10387500Y-7469000I0J17500D01*
G01*
X10322500Y-7469000D02*
G75*
G03*
X10322500Y-7504000I0J-17500D01*
G01*
D14*
X10355000Y-8234000D02*
X10355000Y-8289000D01*
X10327500Y-8261500D02*
X10382500Y-8261500D01*
D11*
X10322500Y-8279000D02*
X10387500Y-8279000D01*
X10322500Y-8244000D02*
X10387500Y-8244000D01*
X10387500Y-8279000D02*
G75*
G03*
X10387500Y-8244000I0J17500D01*
G01*
X10322500Y-8244000D02*
G75*
G03*
X10322500Y-8279000I0J-17500D01*
G01*
D15*
X7896981Y-9484481D02*
X7896981Y-9438519D01*
X7851019Y-9438519D01*
X7851019Y-9484481D01*
X7896981Y-9484481D01*
X8150981Y-9484481D02*
X8150981Y-9438519D01*
X8105019Y-9438519D01*
X8105019Y-9484481D01*
X8150981Y-9484481D01*
X8404981Y-9484481D02*
X8404981Y-9438519D01*
X8359019Y-9438519D01*
X8359019Y-9484481D01*
X8404981Y-9484481D01*
X8658981Y-9484481D02*
X8658981Y-9438519D01*
X8613019Y-9438519D01*
X8613019Y-9484481D01*
X8658981Y-9484481D01*
X8912981Y-9484481D02*
X8912981Y-9438519D01*
X8867019Y-9438519D01*
X8867019Y-9484481D01*
X8912981Y-9484481D01*
X9166981Y-9484481D02*
X9166981Y-9438519D01*
X9121019Y-9438519D01*
X9121019Y-9484481D01*
X9166981Y-9484481D01*
X9420981Y-9484481D02*
X9420981Y-9438519D01*
X9375019Y-9438519D01*
X9375019Y-9484481D01*
X9420981Y-9484481D01*
D16*
X9975000Y-7544000D02*
X10017500Y-7501500D01*
X9975000Y-7459000D01*
X9932500Y-7501500D01*
X9975000Y-7544000D01*
D11*
X9947500Y-7534000D02*
X10002500Y-7534000D01*
X9947500Y-7469000D02*
X10002500Y-7469000D01*
X10002500Y-7534000D02*
G75*
G03*
X10002500Y-7469000I0J32500D01*
G01*
X9947500Y-7469000D02*
G75*
G03*
X9947500Y-7534000I0J-32500D01*
G01*
D16*
X9975000Y-8289000D02*
X10017500Y-8246500D01*
X9975000Y-8204000D01*
X9932500Y-8246500D01*
X9975000Y-8289000D01*
D11*
X9947500Y-8279000D02*
X10002500Y-8279000D01*
X9947500Y-8214000D02*
X10002500Y-8214000D01*
X10002500Y-8279000D02*
G75*
G03*
X10002500Y-8214000I0J32500D01*
G01*
X9947500Y-8214000D02*
G75*
G03*
X9947500Y-8279000I0J-32500D01*
G01*
D17*
X9856000Y-6458250D02*
X9956000Y-6558250D01*
X9956000Y-6458250D02*
X9856000Y-6558250D01*
X9956000Y-6508250D02*
G75*
G03*
X9956000Y-6508250I-50000J0D01*
G01*
D11*
X9866000Y-6408250D02*
X9866000Y-6608250D01*
X9946000Y-6408250D02*
X9946000Y-6608250D01*
X9866000Y-6608250D02*
G75*
G03*
X9946000Y-6608250I40000J0D01*
G01*
X9946000Y-6408250D02*
G75*
G03*
X9866000Y-6408250I-40000J0D01*
G01*
D17*
X10156000Y-6928250D02*
X10256000Y-7028250D01*
X10256000Y-6928250D02*
X10156000Y-7028250D01*
X10256000Y-6978250D02*
G75*
G03*
X10256000Y-6978250I-50000J0D01*
G01*
D11*
X10106000Y-7018250D02*
X10306000Y-7018250D01*
X10106000Y-6938250D02*
X10306000Y-6938250D01*
X10306000Y-7018250D02*
G75*
G03*
X10306000Y-6938250I0J40000D01*
G01*
X10106000Y-6938250D02*
G75*
G03*
X10106000Y-7018250I0J-40000D01*
G01*
D17*
X10364000Y-8586000D02*
X10464000Y-8686000D01*
X10464000Y-8586000D02*
X10364000Y-8686000D01*
X10464000Y-8636000D02*
G75*
G03*
X10464000Y-8636000I-50000J0D01*
G01*
X10364000Y-8840000D02*
X10464000Y-8940000D01*
X10464000Y-8840000D02*
X10364000Y-8940000D01*
X10464000Y-8890000D02*
G75*
G03*
X10464000Y-8890000I-50000J0D01*
G01*
X10364000Y-9094000D02*
X10464000Y-9194000D01*
X10464000Y-9094000D02*
X10364000Y-9194000D01*
X10464000Y-9144000D02*
G75*
G03*
X10464000Y-9144000I-50000J0D01*
G01*
X10456000Y-6458250D02*
X10556000Y-6558250D01*
X10556000Y-6458250D02*
X10456000Y-6558250D01*
X10556000Y-6508250D02*
G75*
G03*
X10556000Y-6508250I-50000J0D01*
G01*
D11*
X10466000Y-6408250D02*
X10466000Y-6608250D01*
X10546000Y-6408250D02*
X10546000Y-6608250D01*
X10466000Y-6608250D02*
G75*
G03*
X10546000Y-6608250I40000J0D01*
G01*
X10546000Y-6408250D02*
G75*
G03*
X10466000Y-6408250I-40000J0D01*
G01*
D18*
X3227500Y-5529000D02*
X3397500Y-5699000D01*
X3397500Y-5529000D02*
X3227500Y-5699000D01*
X3312500Y-5529000D02*
X3312500Y-5699000D01*
X3227500Y-5614000D02*
X3397500Y-5614000D01*
X3227500Y-5925000D02*
X3397500Y-6095000D01*
X3397500Y-5925000D02*
X3227500Y-6095000D01*
X3312500Y-5925000D02*
X3312500Y-6095000D01*
X3227500Y-6010000D02*
X3397500Y-6010000D01*
X3227500Y-6321000D02*
X3397500Y-6491000D01*
X3397500Y-6321000D02*
X3227500Y-6491000D01*
X3312500Y-6321000D02*
X3312500Y-6491000D01*
X3227500Y-6406000D02*
X3397500Y-6406000D01*
X3227500Y-6717000D02*
X3397500Y-6887000D01*
X3397500Y-6717000D02*
X3227500Y-6887000D01*
X3312500Y-6717000D02*
X3312500Y-6887000D01*
X3227500Y-6802000D02*
X3397500Y-6802000D01*
X3227500Y-7113000D02*
X3397500Y-7283000D01*
X3397500Y-7113000D02*
X3227500Y-7283000D01*
X3312500Y-7113000D02*
X3312500Y-7283000D01*
X3227500Y-7198000D02*
X3397500Y-7198000D01*
X3227500Y-7509000D02*
X3397500Y-7679000D01*
X3397500Y-7509000D02*
X3227500Y-7679000D01*
X3312500Y-7509000D02*
X3312500Y-7679000D01*
X3227500Y-7594000D02*
X3397500Y-7594000D01*
X3227500Y-8155000D02*
X3397500Y-8325000D01*
X3397500Y-8155000D02*
X3227500Y-8325000D01*
X3312500Y-8155000D02*
X3312500Y-8325000D01*
X3227500Y-8240000D02*
X3397500Y-8240000D01*
X3227500Y-8551000D02*
X3397500Y-8721000D01*
X3397500Y-8551000D02*
X3227500Y-8721000D01*
X3312500Y-8551000D02*
X3312500Y-8721000D01*
X3227500Y-8636000D02*
X3397500Y-8636000D01*
X3227500Y-8947000D02*
X3397500Y-9117000D01*
X3397500Y-8947000D02*
X3227500Y-9117000D01*
X3312500Y-8947000D02*
X3312500Y-9117000D01*
X3227500Y-9032000D02*
X3397500Y-9032000D01*
X3227500Y-9679000D02*
X3397500Y-9849000D01*
X3397500Y-9679000D02*
X3227500Y-9849000D01*
X3312500Y-9679000D02*
X3312500Y-9849000D01*
X3227500Y-9764000D02*
X3397500Y-9764000D01*
X3227500Y-10075000D02*
X3397500Y-10245000D01*
X3397500Y-10075000D02*
X3227500Y-10245000D01*
X3312500Y-10075000D02*
X3312500Y-10245000D01*
X3227500Y-10160000D02*
X3397500Y-10160000D01*
X3227500Y-10471000D02*
X3397500Y-10641000D01*
X3397500Y-10471000D02*
X3227500Y-10641000D01*
X3312500Y-10471000D02*
X3312500Y-10641000D01*
X3227500Y-10556000D02*
X3397500Y-10556000D01*
X4345000Y-10318500D02*
X4515000Y-10488500D01*
X4515000Y-10318500D02*
X4345000Y-10488500D01*
X4430000Y-10318500D02*
X4430000Y-10488500D01*
X4345000Y-10403500D02*
X4515000Y-10403500D01*
X4741000Y-10318500D02*
X4911000Y-10488500D01*
X4911000Y-10318500D02*
X4741000Y-10488500D01*
X4826000Y-10318500D02*
X4826000Y-10488500D01*
X4741000Y-10403500D02*
X4911000Y-10403500D01*
X5137000Y-10318500D02*
X5307000Y-10488500D01*
X5307000Y-10318500D02*
X5137000Y-10488500D01*
X5222000Y-10318500D02*
X5222000Y-10488500D01*
X5137000Y-10403500D02*
X5307000Y-10403500D01*
D19*
X5920000Y-10324000D02*
X6100000Y-10504000D01*
X6100000Y-10324000D02*
X5920000Y-10504000D01*
X6073640Y-10477640D02*
X6073640Y-10350360D01*
X5946360Y-10350360D01*
X5946360Y-10477640D01*
X6073640Y-10477640D01*
X6316000Y-10324000D02*
X6496000Y-10504000D01*
X6496000Y-10324000D02*
X6316000Y-10504000D01*
X6469640Y-10477640D02*
X6469640Y-10350360D01*
X6342360Y-10350360D01*
X6342360Y-10477640D01*
X6469640Y-10477640D01*
X6712000Y-10324000D02*
X6892000Y-10504000D01*
X6892000Y-10324000D02*
X6712000Y-10504000D01*
X6865640Y-10477640D02*
X6865640Y-10350360D01*
X6738360Y-10350360D01*
X6738360Y-10477640D01*
X6865640Y-10477640D01*
X7108000Y-10324000D02*
X7288000Y-10504000D01*
X7288000Y-10324000D02*
X7108000Y-10504000D01*
X7261640Y-10477640D02*
X7261640Y-10350360D01*
X7134360Y-10350360D01*
X7134360Y-10477640D01*
X7261640Y-10477640D01*
D20*
X7874000Y-10731500D02*
X8128000Y-10985500D01*
X8128000Y-10731500D02*
X7874000Y-10985500D01*
X8001000Y-10985500D02*
X8128000Y-10858500D01*
X8001000Y-10731500D01*
X7874000Y-10858500D01*
X8001000Y-10985500D01*
X9144000Y-10731500D02*
X9398000Y-10985500D01*
X9398000Y-10731500D02*
X9144000Y-10985500D01*
X9271000Y-10985500D02*
X9398000Y-10858500D01*
X9271000Y-10731500D01*
X9144000Y-10858500D01*
X9271000Y-10985500D01*
D21*
X2805000Y-4475000D02*
X2805000Y-4845000D01*
X2620000Y-4660000D02*
X2990000Y-4660000D01*
X2990000Y-4660000D02*
G75*
G03*
X2990000Y-4660000I-185000J0D01*
G01*
D11*
X2541119Y-11488976D02*
X2541119Y-11288976D01*
X2588738Y-11288976D01*
X2617310Y-11298500D01*
X2636357Y-11317548D01*
X2645881Y-11336595D01*
X2655405Y-11374690D01*
X2655405Y-11403262D01*
X2645881Y-11441357D01*
X2636357Y-11460405D01*
X2617310Y-11479452D01*
X2588738Y-11488976D01*
X2541119Y-11488976D01*
X2741119Y-11488976D02*
X2741119Y-11355643D01*
X2741119Y-11393738D02*
X2750643Y-11374690D01*
X2760167Y-11365167D01*
X2779214Y-11355643D01*
X2798262Y-11355643D01*
X2864928Y-11488976D02*
X2864928Y-11355643D01*
X2864928Y-11288976D02*
X2855405Y-11298500D01*
X2864928Y-11308024D01*
X2874452Y-11298500D01*
X2864928Y-11288976D01*
X2864928Y-11308024D01*
X2988738Y-11488976D02*
X2969690Y-11479452D01*
X2960167Y-11460405D01*
X2960167Y-11288976D01*
X3093500Y-11488976D02*
X3074452Y-11479452D01*
X3064928Y-11460405D01*
X3064928Y-11288976D01*
X3322071Y-11488976D02*
X3322071Y-11288976D01*
X3388738Y-11431833D01*
X3455405Y-11288976D01*
X3455405Y-11488976D01*
X3636357Y-11488976D02*
X3636357Y-11384214D01*
X3626833Y-11365167D01*
X3607786Y-11355643D01*
X3569690Y-11355643D01*
X3550643Y-11365167D01*
X3636357Y-11479452D02*
X3617309Y-11488976D01*
X3569690Y-11488976D01*
X3550643Y-11479452D01*
X3541119Y-11460405D01*
X3541119Y-11441357D01*
X3550643Y-11422309D01*
X3569690Y-11412786D01*
X3617309Y-11412786D01*
X3636357Y-11403262D01*
X3731595Y-11355643D02*
X3731595Y-11555643D01*
X3731595Y-11365167D02*
X3750643Y-11355643D01*
X3788738Y-11355643D01*
X3807786Y-11365167D01*
X3817309Y-11374690D01*
X3826833Y-11393738D01*
X3826833Y-11450881D01*
X3817309Y-11469928D01*
X3807786Y-11479452D01*
X3788738Y-11488976D01*
X3750643Y-11488976D01*
X3731595Y-11479452D01*
X3912548Y-11469928D02*
X3922071Y-11479452D01*
X3912548Y-11488976D01*
X3903024Y-11479452D01*
X3912548Y-11469928D01*
X3912548Y-11488976D01*
X3912548Y-11365167D02*
X3922071Y-11374690D01*
X3912548Y-11384214D01*
X3903024Y-11374690D01*
X3912548Y-11365167D01*
X3912548Y-11384214D01*
D12*
X2243500Y-11798500D02*
X2283500Y-11838500D01*
X2283500Y-11798500D02*
X2243500Y-11838500D01*
D11*
X2579214Y-11708976D02*
X2598262Y-11708976D01*
X2617310Y-11718500D01*
X2626833Y-11728024D01*
X2636357Y-11747071D01*
X2645881Y-11785167D01*
X2645881Y-11832786D01*
X2636357Y-11870881D01*
X2626833Y-11889928D01*
X2617310Y-11899452D01*
X2598262Y-11908976D01*
X2579214Y-11908976D01*
X2560167Y-11899452D01*
X2550643Y-11889928D01*
X2541119Y-11870881D01*
X2531595Y-11832786D01*
X2531595Y-11785167D01*
X2541119Y-11747071D01*
X2550643Y-11728024D01*
X2560167Y-11718500D01*
X2579214Y-11708976D01*
X2731595Y-11889928D02*
X2741119Y-11899452D01*
X2731595Y-11908976D01*
X2722071Y-11899452D01*
X2731595Y-11889928D01*
X2731595Y-11908976D01*
X2912548Y-11775643D02*
X2912548Y-11908976D01*
X2864928Y-11699452D02*
X2817309Y-11842309D01*
X2941119Y-11842309D01*
X3055405Y-11708976D02*
X3074452Y-11708976D01*
X3093500Y-11718500D01*
X3103024Y-11728024D01*
X3112548Y-11747071D01*
X3122071Y-11785167D01*
X3122071Y-11832786D01*
X3112548Y-11870881D01*
X3103024Y-11889928D01*
X3093500Y-11899452D01*
X3074452Y-11908976D01*
X3055405Y-11908976D01*
X3036357Y-11899452D01*
X3026833Y-11889928D01*
X3017309Y-11870881D01*
X3007786Y-11832786D01*
X3007786Y-11785167D01*
X3017309Y-11747071D01*
X3026833Y-11728024D01*
X3036357Y-11718500D01*
X3055405Y-11708976D01*
X3245881Y-11708976D02*
X3264928Y-11708976D01*
X3283976Y-11718500D01*
X3293500Y-11728024D01*
X3303024Y-11747071D01*
X3312548Y-11785167D01*
X3312548Y-11832786D01*
X3303024Y-11870881D01*
X3293500Y-11889928D01*
X3283976Y-11899452D01*
X3264928Y-11908976D01*
X3245881Y-11908976D01*
X3226833Y-11899452D01*
X3217309Y-11889928D01*
X3207786Y-11870881D01*
X3198262Y-11832786D01*
X3198262Y-11785167D01*
X3207786Y-11747071D01*
X3217309Y-11728024D01*
X3226833Y-11718500D01*
X3245881Y-11708976D01*
X3398262Y-11908976D02*
X3398262Y-11775643D01*
X3398262Y-11794690D02*
X3407786Y-11785167D01*
X3426833Y-11775643D01*
X3455405Y-11775643D01*
X3474452Y-11785167D01*
X3483976Y-11804214D01*
X3483976Y-11908976D01*
X3483976Y-11804214D02*
X3493500Y-11785167D01*
X3512548Y-11775643D01*
X3541119Y-11775643D01*
X3560167Y-11785167D01*
X3569690Y-11804214D01*
X3569690Y-11908976D01*
X3664928Y-11908976D02*
X3664928Y-11775643D01*
X3664928Y-11794690D02*
X3674452Y-11785167D01*
X3693500Y-11775643D01*
X3722071Y-11775643D01*
X3741119Y-11785167D01*
X3750643Y-11804214D01*
X3750643Y-11908976D01*
X3750643Y-11804214D02*
X3760167Y-11785167D01*
X3779214Y-11775643D01*
X3807786Y-11775643D01*
X3826833Y-11785167D01*
X3836357Y-11804214D01*
X3836357Y-11908976D01*
X4226833Y-11699452D02*
X4055405Y-11956595D01*
X4483976Y-11708976D02*
X4503024Y-11708976D01*
X4522071Y-11718500D01*
X4531595Y-11728024D01*
X4541119Y-11747071D01*
X4550643Y-11785167D01*
X4550643Y-11832786D01*
X4541119Y-11870881D01*
X4531595Y-11889928D01*
X4522071Y-11899452D01*
X4503024Y-11908976D01*
X4483976Y-11908976D01*
X4464929Y-11899452D01*
X4455405Y-11889928D01*
X4445881Y-11870881D01*
X4436357Y-11832786D01*
X4436357Y-11785167D01*
X4445881Y-11747071D01*
X4455405Y-11728024D01*
X4464929Y-11718500D01*
X4483976Y-11708976D01*
X4636357Y-11889928D02*
X4645881Y-11899452D01*
X4636357Y-11908976D01*
X4626833Y-11899452D01*
X4636357Y-11889928D01*
X4636357Y-11908976D01*
X4769690Y-11708976D02*
X4788738Y-11708976D01*
X4807786Y-11718500D01*
X4817310Y-11728024D01*
X4826833Y-11747071D01*
X4836357Y-11785167D01*
X4836357Y-11832786D01*
X4826833Y-11870881D01*
X4817310Y-11889928D01*
X4807786Y-11899452D01*
X4788738Y-11908976D01*
X4769690Y-11908976D01*
X4750643Y-11899452D01*
X4741119Y-11889928D01*
X4731595Y-11870881D01*
X4722071Y-11832786D01*
X4722071Y-11785167D01*
X4731595Y-11747071D01*
X4741119Y-11728024D01*
X4750643Y-11718500D01*
X4769690Y-11708976D01*
X5026833Y-11908976D02*
X4912548Y-11908976D01*
X4969690Y-11908976D02*
X4969690Y-11708976D01*
X4950643Y-11737548D01*
X4931595Y-11756595D01*
X4912548Y-11766119D01*
X5207786Y-11708976D02*
X5112548Y-11708976D01*
X5103024Y-11804214D01*
X5112548Y-11794690D01*
X5131595Y-11785167D01*
X5179214Y-11785167D01*
X5198262Y-11794690D01*
X5207786Y-11804214D01*
X5217310Y-11823262D01*
X5217310Y-11870881D01*
X5207786Y-11889928D01*
X5198262Y-11899452D01*
X5179214Y-11908976D01*
X5131595Y-11908976D01*
X5112548Y-11899452D01*
X5103024Y-11889928D01*
X5283976Y-11708976D02*
X5417310Y-11708976D01*
X5331595Y-11908976D01*
X5483976Y-11708976D02*
X5483976Y-11747071D01*
X5560167Y-11708976D02*
X5560167Y-11747071D01*
X5855405Y-11985167D02*
X5845881Y-11975643D01*
X5826833Y-11947071D01*
X5817309Y-11928024D01*
X5807786Y-11899452D01*
X5798262Y-11851833D01*
X5798262Y-11813738D01*
X5807786Y-11766119D01*
X5817309Y-11737548D01*
X5826833Y-11718500D01*
X5845881Y-11689928D01*
X5855405Y-11680405D01*
X6017309Y-11708976D02*
X5979214Y-11708976D01*
X5960167Y-11718500D01*
X5950643Y-11728024D01*
X5931595Y-11756595D01*
X5922071Y-11794690D01*
X5922071Y-11870881D01*
X5931595Y-11889928D01*
X5941119Y-11899452D01*
X5960167Y-11908976D01*
X5998262Y-11908976D01*
X6017309Y-11899452D01*
X6026833Y-11889928D01*
X6036357Y-11870881D01*
X6036357Y-11823262D01*
X6026833Y-11804214D01*
X6017309Y-11794690D01*
X5998262Y-11785167D01*
X5960167Y-11785167D01*
X5941119Y-11794690D01*
X5931595Y-11804214D01*
X5922071Y-11823262D01*
X6207786Y-11775643D02*
X6207786Y-11908976D01*
X6160167Y-11699452D02*
X6112548Y-11842309D01*
X6236357Y-11842309D01*
X6464928Y-11908976D02*
X6464928Y-11708976D01*
X6550643Y-11908976D02*
X6550643Y-11804214D01*
X6541119Y-11785167D01*
X6522071Y-11775643D01*
X6493500Y-11775643D01*
X6474452Y-11785167D01*
X6464928Y-11794690D01*
X6674452Y-11908976D02*
X6655405Y-11899452D01*
X6645881Y-11889928D01*
X6636357Y-11870881D01*
X6636357Y-11813738D01*
X6645881Y-11794690D01*
X6655405Y-11785167D01*
X6674452Y-11775643D01*
X6703024Y-11775643D01*
X6722071Y-11785167D01*
X6731595Y-11794690D01*
X6741119Y-11813738D01*
X6741119Y-11870881D01*
X6731595Y-11889928D01*
X6722071Y-11899452D01*
X6703024Y-11908976D01*
X6674452Y-11908976D01*
X6855405Y-11908976D02*
X6836357Y-11899452D01*
X6826833Y-11880405D01*
X6826833Y-11708976D01*
X7007786Y-11899452D02*
X6988738Y-11908976D01*
X6950643Y-11908976D01*
X6931595Y-11899452D01*
X6922071Y-11880405D01*
X6922071Y-11804214D01*
X6931595Y-11785167D01*
X6950643Y-11775643D01*
X6988738Y-11775643D01*
X7007786Y-11785167D01*
X7017309Y-11804214D01*
X7017309Y-11823262D01*
X6922071Y-11842309D01*
X7093500Y-11899452D02*
X7112548Y-11908976D01*
X7150643Y-11908976D01*
X7169690Y-11899452D01*
X7179214Y-11880405D01*
X7179214Y-11870881D01*
X7169690Y-11851833D01*
X7150643Y-11842309D01*
X7122071Y-11842309D01*
X7103024Y-11832786D01*
X7093500Y-11813738D01*
X7093500Y-11804214D01*
X7103024Y-11785167D01*
X7122071Y-11775643D01*
X7150643Y-11775643D01*
X7169690Y-11785167D01*
X7245881Y-11985167D02*
X7255405Y-11975643D01*
X7274452Y-11947071D01*
X7283976Y-11928024D01*
X7293500Y-11899452D01*
X7303024Y-11851833D01*
X7303024Y-11813738D01*
X7293500Y-11766119D01*
X7283976Y-11737548D01*
X7274452Y-11718500D01*
X7255405Y-11689928D01*
X7245881Y-11680405D01*
D13*
X2283500Y-12082500D02*
G75*
G03*
X2283500Y-12082500I-25000J0D01*
G01*
D11*
X2579214Y-11972976D02*
X2598262Y-11972976D01*
X2617310Y-11982500D01*
X2626833Y-11992024D01*
X2636357Y-12011071D01*
X2645881Y-12049167D01*
X2645881Y-12096786D01*
X2636357Y-12134881D01*
X2626833Y-12153928D01*
X2617310Y-12163452D01*
X2598262Y-12172976D01*
X2579214Y-12172976D01*
X2560167Y-12163452D01*
X2550643Y-12153928D01*
X2541119Y-12134881D01*
X2531595Y-12096786D01*
X2531595Y-12049167D01*
X2541119Y-12011071D01*
X2550643Y-11992024D01*
X2560167Y-11982500D01*
X2579214Y-11972976D01*
X2731595Y-12153928D02*
X2741119Y-12163452D01*
X2731595Y-12172976D01*
X2722071Y-12163452D01*
X2731595Y-12153928D01*
X2731595Y-12172976D01*
X2922071Y-11972976D02*
X2826833Y-11972976D01*
X2817309Y-12068214D01*
X2826833Y-12058690D01*
X2845881Y-12049167D01*
X2893500Y-12049167D01*
X2912548Y-12058690D01*
X2922071Y-12068214D01*
X2931595Y-12087262D01*
X2931595Y-12134881D01*
X2922071Y-12153928D01*
X2912548Y-12163452D01*
X2893500Y-12172976D01*
X2845881Y-12172976D01*
X2826833Y-12163452D01*
X2817309Y-12153928D01*
X3055405Y-11972976D02*
X3074452Y-11972976D01*
X3093500Y-11982500D01*
X3103024Y-11992024D01*
X3112548Y-12011071D01*
X3122071Y-12049167D01*
X3122071Y-12096786D01*
X3112548Y-12134881D01*
X3103024Y-12153928D01*
X3093500Y-12163452D01*
X3074452Y-12172976D01*
X3055405Y-12172976D01*
X3036357Y-12163452D01*
X3026833Y-12153928D01*
X3017309Y-12134881D01*
X3007786Y-12096786D01*
X3007786Y-12049167D01*
X3017309Y-12011071D01*
X3026833Y-11992024D01*
X3036357Y-11982500D01*
X3055405Y-11972976D01*
X3245881Y-11972976D02*
X3264928Y-11972976D01*
X3283976Y-11982500D01*
X3293500Y-11992024D01*
X3303024Y-12011071D01*
X3312548Y-12049167D01*
X3312548Y-12096786D01*
X3303024Y-12134881D01*
X3293500Y-12153928D01*
X3283976Y-12163452D01*
X3264928Y-12172976D01*
X3245881Y-12172976D01*
X3226833Y-12163452D01*
X3217309Y-12153928D01*
X3207786Y-12134881D01*
X3198262Y-12096786D01*
X3198262Y-12049167D01*
X3207786Y-12011071D01*
X3217309Y-11992024D01*
X3226833Y-11982500D01*
X3245881Y-11972976D01*
X3398262Y-12172976D02*
X3398262Y-12039643D01*
X3398262Y-12058690D02*
X3407786Y-12049167D01*
X3426833Y-12039643D01*
X3455405Y-12039643D01*
X3474452Y-12049167D01*
X3483976Y-12068214D01*
X3483976Y-12172976D01*
X3483976Y-12068214D02*
X3493500Y-12049167D01*
X3512548Y-12039643D01*
X3541119Y-12039643D01*
X3560167Y-12049167D01*
X3569690Y-12068214D01*
X3569690Y-12172976D01*
X3664928Y-12172976D02*
X3664928Y-12039643D01*
X3664928Y-12058690D02*
X3674452Y-12049167D01*
X3693500Y-12039643D01*
X3722071Y-12039643D01*
X3741119Y-12049167D01*
X3750643Y-12068214D01*
X3750643Y-12172976D01*
X3750643Y-12068214D02*
X3760167Y-12049167D01*
X3779214Y-12039643D01*
X3807786Y-12039643D01*
X3826833Y-12049167D01*
X3836357Y-12068214D01*
X3836357Y-12172976D01*
X4226833Y-11963452D02*
X4055405Y-12220595D01*
X4483976Y-11972976D02*
X4503024Y-11972976D01*
X4522071Y-11982500D01*
X4531595Y-11992024D01*
X4541119Y-12011071D01*
X4550643Y-12049167D01*
X4550643Y-12096786D01*
X4541119Y-12134881D01*
X4531595Y-12153928D01*
X4522071Y-12163452D01*
X4503024Y-12172976D01*
X4483976Y-12172976D01*
X4464929Y-12163452D01*
X4455405Y-12153928D01*
X4445881Y-12134881D01*
X4436357Y-12096786D01*
X4436357Y-12049167D01*
X4445881Y-12011071D01*
X4455405Y-11992024D01*
X4464929Y-11982500D01*
X4483976Y-11972976D01*
X4636357Y-12153928D02*
X4645881Y-12163452D01*
X4636357Y-12172976D01*
X4626833Y-12163452D01*
X4636357Y-12153928D01*
X4636357Y-12172976D01*
X4769690Y-11972976D02*
X4788738Y-11972976D01*
X4807786Y-11982500D01*
X4817310Y-11992024D01*
X4826833Y-12011071D01*
X4836357Y-12049167D01*
X4836357Y-12096786D01*
X4826833Y-12134881D01*
X4817310Y-12153928D01*
X4807786Y-12163452D01*
X4788738Y-12172976D01*
X4769690Y-12172976D01*
X4750643Y-12163452D01*
X4741119Y-12153928D01*
X4731595Y-12134881D01*
X4722071Y-12096786D01*
X4722071Y-12049167D01*
X4731595Y-12011071D01*
X4741119Y-11992024D01*
X4750643Y-11982500D01*
X4769690Y-11972976D01*
X5026833Y-12172976D02*
X4912548Y-12172976D01*
X4969690Y-12172976D02*
X4969690Y-11972976D01*
X4950643Y-12001548D01*
X4931595Y-12020595D01*
X4912548Y-12030119D01*
X5122071Y-12172976D02*
X5160167Y-12172976D01*
X5179214Y-12163452D01*
X5188738Y-12153928D01*
X5207786Y-12125357D01*
X5217310Y-12087262D01*
X5217310Y-12011071D01*
X5207786Y-11992024D01*
X5198262Y-11982500D01*
X5179214Y-11972976D01*
X5141119Y-11972976D01*
X5122071Y-11982500D01*
X5112548Y-11992024D01*
X5103024Y-12011071D01*
X5103024Y-12058690D01*
X5112548Y-12077738D01*
X5122071Y-12087262D01*
X5141119Y-12096786D01*
X5179214Y-12096786D01*
X5198262Y-12087262D01*
X5207786Y-12077738D01*
X5217310Y-12058690D01*
X5283976Y-11972976D02*
X5417310Y-11972976D01*
X5331595Y-12172976D01*
X5483976Y-11972976D02*
X5483976Y-12011071D01*
X5560167Y-11972976D02*
X5560167Y-12011071D01*
X5855405Y-12249167D02*
X5845881Y-12239643D01*
X5826833Y-12211071D01*
X5817309Y-12192024D01*
X5807786Y-12163452D01*
X5798262Y-12115833D01*
X5798262Y-12077738D01*
X5807786Y-12030119D01*
X5817309Y-12001548D01*
X5826833Y-11982500D01*
X5845881Y-11953928D01*
X5855405Y-11944405D01*
X5912548Y-11972976D02*
X6045881Y-11972976D01*
X5960167Y-12172976D01*
X6274452Y-12172976D02*
X6274452Y-11972976D01*
X6360167Y-12172976D02*
X6360167Y-12068214D01*
X6350643Y-12049167D01*
X6331595Y-12039643D01*
X6303024Y-12039643D01*
X6283976Y-12049167D01*
X6274452Y-12058690D01*
X6483976Y-12172976D02*
X6464928Y-12163452D01*
X6455405Y-12153928D01*
X6445881Y-12134881D01*
X6445881Y-12077738D01*
X6455405Y-12058690D01*
X6464928Y-12049167D01*
X6483976Y-12039643D01*
X6512548Y-12039643D01*
X6531595Y-12049167D01*
X6541119Y-12058690D01*
X6550643Y-12077738D01*
X6550643Y-12134881D01*
X6541119Y-12153928D01*
X6531595Y-12163452D01*
X6512548Y-12172976D01*
X6483976Y-12172976D01*
X6664928Y-12172976D02*
X6645881Y-12163452D01*
X6636357Y-12144405D01*
X6636357Y-11972976D01*
X6817309Y-12163452D02*
X6798262Y-12172976D01*
X6760167Y-12172976D01*
X6741119Y-12163452D01*
X6731595Y-12144405D01*
X6731595Y-12068214D01*
X6741119Y-12049167D01*
X6760167Y-12039643D01*
X6798262Y-12039643D01*
X6817309Y-12049167D01*
X6826833Y-12068214D01*
X6826833Y-12087262D01*
X6731595Y-12106309D01*
X6903024Y-12163452D02*
X6922071Y-12172976D01*
X6960167Y-12172976D01*
X6979214Y-12163452D01*
X6988738Y-12144405D01*
X6988738Y-12134881D01*
X6979214Y-12115833D01*
X6960167Y-12106309D01*
X6931595Y-12106309D01*
X6912548Y-12096786D01*
X6903024Y-12077738D01*
X6903024Y-12068214D01*
X6912548Y-12049167D01*
X6931595Y-12039643D01*
X6960167Y-12039643D01*
X6979214Y-12049167D01*
X7055405Y-12249167D02*
X7064928Y-12239643D01*
X7083976Y-12211071D01*
X7093500Y-12192024D01*
X7103024Y-12163452D01*
X7112548Y-12115833D01*
X7112548Y-12077738D01*
X7103024Y-12030119D01*
X7093500Y-12001548D01*
X7083976Y-11982500D01*
X7064928Y-11953928D01*
X7055405Y-11944405D01*
D14*
X2256000Y-12319000D02*
X2256000Y-12374000D01*
X2228500Y-12346500D02*
X2283500Y-12346500D01*
D11*
X2579214Y-12236976D02*
X2598262Y-12236976D01*
X2617310Y-12246500D01*
X2626833Y-12256024D01*
X2636357Y-12275071D01*
X2645881Y-12313167D01*
X2645881Y-12360786D01*
X2636357Y-12398881D01*
X2626833Y-12417928D01*
X2617310Y-12427452D01*
X2598262Y-12436976D01*
X2579214Y-12436976D01*
X2560167Y-12427452D01*
X2550643Y-12417928D01*
X2541119Y-12398881D01*
X2531595Y-12360786D01*
X2531595Y-12313167D01*
X2541119Y-12275071D01*
X2550643Y-12256024D01*
X2560167Y-12246500D01*
X2579214Y-12236976D01*
X2731595Y-12417928D02*
X2741119Y-12427452D01*
X2731595Y-12436976D01*
X2722071Y-12427452D01*
X2731595Y-12417928D01*
X2731595Y-12436976D01*
X2922071Y-12236976D02*
X2826833Y-12236976D01*
X2817309Y-12332214D01*
X2826833Y-12322690D01*
X2845881Y-12313167D01*
X2893500Y-12313167D01*
X2912548Y-12322690D01*
X2922071Y-12332214D01*
X2931595Y-12351262D01*
X2931595Y-12398881D01*
X2922071Y-12417928D01*
X2912548Y-12427452D01*
X2893500Y-12436976D01*
X2845881Y-12436976D01*
X2826833Y-12427452D01*
X2817309Y-12417928D01*
X3112548Y-12236976D02*
X3017309Y-12236976D01*
X3007786Y-12332214D01*
X3017309Y-12322690D01*
X3036357Y-12313167D01*
X3083976Y-12313167D01*
X3103024Y-12322690D01*
X3112548Y-12332214D01*
X3122071Y-12351262D01*
X3122071Y-12398881D01*
X3112548Y-12417928D01*
X3103024Y-12427452D01*
X3083976Y-12436976D01*
X3036357Y-12436976D01*
X3017309Y-12427452D01*
X3007786Y-12417928D01*
X3245881Y-12236976D02*
X3264928Y-12236976D01*
X3283976Y-12246500D01*
X3293500Y-12256024D01*
X3303024Y-12275071D01*
X3312548Y-12313167D01*
X3312548Y-12360786D01*
X3303024Y-12398881D01*
X3293500Y-12417928D01*
X3283976Y-12427452D01*
X3264928Y-12436976D01*
X3245881Y-12436976D01*
X3226833Y-12427452D01*
X3217309Y-12417928D01*
X3207786Y-12398881D01*
X3198262Y-12360786D01*
X3198262Y-12313167D01*
X3207786Y-12275071D01*
X3217309Y-12256024D01*
X3226833Y-12246500D01*
X3245881Y-12236976D01*
X3398262Y-12436976D02*
X3398262Y-12303643D01*
X3398262Y-12322690D02*
X3407786Y-12313167D01*
X3426833Y-12303643D01*
X3455405Y-12303643D01*
X3474452Y-12313167D01*
X3483976Y-12332214D01*
X3483976Y-12436976D01*
X3483976Y-12332214D02*
X3493500Y-12313167D01*
X3512548Y-12303643D01*
X3541119Y-12303643D01*
X3560167Y-12313167D01*
X3569690Y-12332214D01*
X3569690Y-12436976D01*
X3664928Y-12436976D02*
X3664928Y-12303643D01*
X3664928Y-12322690D02*
X3674452Y-12313167D01*
X3693500Y-12303643D01*
X3722071Y-12303643D01*
X3741119Y-12313167D01*
X3750643Y-12332214D01*
X3750643Y-12436976D01*
X3750643Y-12332214D02*
X3760167Y-12313167D01*
X3779214Y-12303643D01*
X3807786Y-12303643D01*
X3826833Y-12313167D01*
X3836357Y-12332214D01*
X3836357Y-12436976D01*
X4226833Y-12227452D02*
X4055405Y-12484595D01*
X4483976Y-12236976D02*
X4503024Y-12236976D01*
X4522071Y-12246500D01*
X4531595Y-12256024D01*
X4541119Y-12275071D01*
X4550643Y-12313167D01*
X4550643Y-12360786D01*
X4541119Y-12398881D01*
X4531595Y-12417928D01*
X4522071Y-12427452D01*
X4503024Y-12436976D01*
X4483976Y-12436976D01*
X4464929Y-12427452D01*
X4455405Y-12417928D01*
X4445881Y-12398881D01*
X4436357Y-12360786D01*
X4436357Y-12313167D01*
X4445881Y-12275071D01*
X4455405Y-12256024D01*
X4464929Y-12246500D01*
X4483976Y-12236976D01*
X4636357Y-12417928D02*
X4645881Y-12427452D01*
X4636357Y-12436976D01*
X4626833Y-12427452D01*
X4636357Y-12417928D01*
X4636357Y-12436976D01*
X4769690Y-12236976D02*
X4788738Y-12236976D01*
X4807786Y-12246500D01*
X4817310Y-12256024D01*
X4826833Y-12275071D01*
X4836357Y-12313167D01*
X4836357Y-12360786D01*
X4826833Y-12398881D01*
X4817310Y-12417928D01*
X4807786Y-12427452D01*
X4788738Y-12436976D01*
X4769690Y-12436976D01*
X4750643Y-12427452D01*
X4741119Y-12417928D01*
X4731595Y-12398881D01*
X4722071Y-12360786D01*
X4722071Y-12313167D01*
X4731595Y-12275071D01*
X4741119Y-12256024D01*
X4750643Y-12246500D01*
X4769690Y-12236976D01*
X4912548Y-12256024D02*
X4922071Y-12246500D01*
X4941119Y-12236976D01*
X4988738Y-12236976D01*
X5007786Y-12246500D01*
X5017310Y-12256024D01*
X5026833Y-12275071D01*
X5026833Y-12294119D01*
X5017310Y-12322690D01*
X4903024Y-12436976D01*
X5026833Y-12436976D01*
X5217310Y-12436976D02*
X5103024Y-12436976D01*
X5160167Y-12436976D02*
X5160167Y-12236976D01*
X5141119Y-12265548D01*
X5122071Y-12284595D01*
X5103024Y-12294119D01*
X5283976Y-12236976D02*
X5417310Y-12236976D01*
X5331595Y-12436976D01*
X5483976Y-12236976D02*
X5483976Y-12275071D01*
X5560167Y-12236976D02*
X5560167Y-12275071D01*
X5855405Y-12513167D02*
X5845881Y-12503643D01*
X5826833Y-12475071D01*
X5817309Y-12456024D01*
X5807786Y-12427452D01*
X5798262Y-12379833D01*
X5798262Y-12341738D01*
X5807786Y-12294119D01*
X5817309Y-12265548D01*
X5826833Y-12246500D01*
X5845881Y-12217928D01*
X5855405Y-12208405D01*
X5969690Y-12236976D02*
X5988738Y-12236976D01*
X6007786Y-12246500D01*
X6017309Y-12256024D01*
X6026833Y-12275071D01*
X6036357Y-12313167D01*
X6036357Y-12360786D01*
X6026833Y-12398881D01*
X6017309Y-12417928D01*
X6007786Y-12427452D01*
X5988738Y-12436976D01*
X5969690Y-12436976D01*
X5950643Y-12427452D01*
X5941119Y-12417928D01*
X5931595Y-12398881D01*
X5922071Y-12360786D01*
X5922071Y-12313167D01*
X5931595Y-12275071D01*
X5941119Y-12256024D01*
X5950643Y-12246500D01*
X5969690Y-12236976D01*
X6274452Y-12436976D02*
X6274452Y-12236976D01*
X6360167Y-12436976D02*
X6360167Y-12332214D01*
X6350643Y-12313167D01*
X6331595Y-12303643D01*
X6303024Y-12303643D01*
X6283976Y-12313167D01*
X6274452Y-12322690D01*
X6483976Y-12436976D02*
X6464928Y-12427452D01*
X6455405Y-12417928D01*
X6445881Y-12398881D01*
X6445881Y-12341738D01*
X6455405Y-12322690D01*
X6464928Y-12313167D01*
X6483976Y-12303643D01*
X6512548Y-12303643D01*
X6531595Y-12313167D01*
X6541119Y-12322690D01*
X6550643Y-12341738D01*
X6550643Y-12398881D01*
X6541119Y-12417928D01*
X6531595Y-12427452D01*
X6512548Y-12436976D01*
X6483976Y-12436976D01*
X6664928Y-12436976D02*
X6645881Y-12427452D01*
X6636357Y-12408405D01*
X6636357Y-12236976D01*
X6817309Y-12427452D02*
X6798262Y-12436976D01*
X6760167Y-12436976D01*
X6741119Y-12427452D01*
X6731595Y-12408405D01*
X6731595Y-12332214D01*
X6741119Y-12313167D01*
X6760167Y-12303643D01*
X6798262Y-12303643D01*
X6817309Y-12313167D01*
X6826833Y-12332214D01*
X6826833Y-12351262D01*
X6731595Y-12370309D01*
X6903024Y-12427452D02*
X6922071Y-12436976D01*
X6960167Y-12436976D01*
X6979214Y-12427452D01*
X6988738Y-12408405D01*
X6988738Y-12398881D01*
X6979214Y-12379833D01*
X6960167Y-12370309D01*
X6931595Y-12370309D01*
X6912548Y-12360786D01*
X6903024Y-12341738D01*
X6903024Y-12332214D01*
X6912548Y-12313167D01*
X6931595Y-12303643D01*
X6960167Y-12303643D01*
X6979214Y-12313167D01*
X7226833Y-12360786D02*
X7379214Y-12360786D01*
X7303024Y-12436976D02*
X7303024Y-12284595D01*
X7617309Y-12256024D02*
X7626833Y-12246500D01*
X7645881Y-12236976D01*
X7693500Y-12236976D01*
X7712548Y-12246500D01*
X7722071Y-12256024D01*
X7731595Y-12275071D01*
X7731595Y-12294119D01*
X7722071Y-12322690D01*
X7607786Y-12436976D01*
X7731595Y-12436976D01*
X7960167Y-12427452D02*
X7979214Y-12436976D01*
X8017309Y-12436976D01*
X8036357Y-12427452D01*
X8045881Y-12408405D01*
X8045881Y-12398881D01*
X8036357Y-12379833D01*
X8017309Y-12370309D01*
X7988738Y-12370309D01*
X7969690Y-12360786D01*
X7960167Y-12341738D01*
X7960167Y-12332214D01*
X7969690Y-12313167D01*
X7988738Y-12303643D01*
X8017309Y-12303643D01*
X8036357Y-12313167D01*
X8160167Y-12436976D02*
X8141119Y-12427452D01*
X8131595Y-12408405D01*
X8131595Y-12236976D01*
X8264928Y-12436976D02*
X8245881Y-12427452D01*
X8236357Y-12417928D01*
X8226833Y-12398881D01*
X8226833Y-12341738D01*
X8236357Y-12322690D01*
X8245881Y-12313167D01*
X8264928Y-12303643D01*
X8293500Y-12303643D01*
X8312548Y-12313167D01*
X8322071Y-12322690D01*
X8331595Y-12341738D01*
X8331595Y-12398881D01*
X8322071Y-12417928D01*
X8312548Y-12427452D01*
X8293500Y-12436976D01*
X8264928Y-12436976D01*
X8388738Y-12303643D02*
X8464929Y-12303643D01*
X8417310Y-12236976D02*
X8417310Y-12408405D01*
X8426833Y-12427452D01*
X8445881Y-12436976D01*
X8464929Y-12436976D01*
X8522071Y-12427452D02*
X8541119Y-12436976D01*
X8579214Y-12436976D01*
X8598262Y-12427452D01*
X8607786Y-12408405D01*
X8607786Y-12398881D01*
X8598262Y-12379833D01*
X8579214Y-12370309D01*
X8550643Y-12370309D01*
X8531595Y-12360786D01*
X8522071Y-12341738D01*
X8522071Y-12332214D01*
X8531595Y-12313167D01*
X8550643Y-12303643D01*
X8579214Y-12303643D01*
X8598262Y-12313167D01*
X8674452Y-12513167D02*
X8683976Y-12503643D01*
X8703024Y-12475071D01*
X8712548Y-12456024D01*
X8722071Y-12427452D01*
X8731595Y-12379833D01*
X8731595Y-12341738D01*
X8722071Y-12294119D01*
X8712548Y-12265548D01*
X8703024Y-12246500D01*
X8683976Y-12217928D01*
X8674452Y-12208405D01*
D15*
X2273981Y-12633481D02*
X2273981Y-12587519D01*
X2228019Y-12587519D01*
X2228019Y-12633481D01*
X2273981Y-12633481D01*
D11*
X2579214Y-12500976D02*
X2598262Y-12500976D01*
X2617310Y-12510500D01*
X2626833Y-12520024D01*
X2636357Y-12539071D01*
X2645881Y-12577167D01*
X2645881Y-12624786D01*
X2636357Y-12662881D01*
X2626833Y-12681928D01*
X2617310Y-12691452D01*
X2598262Y-12700976D01*
X2579214Y-12700976D01*
X2560167Y-12691452D01*
X2550643Y-12681928D01*
X2541119Y-12662881D01*
X2531595Y-12624786D01*
X2531595Y-12577167D01*
X2541119Y-12539071D01*
X2550643Y-12520024D01*
X2560167Y-12510500D01*
X2579214Y-12500976D01*
X2731595Y-12681928D02*
X2741119Y-12691452D01*
X2731595Y-12700976D01*
X2722071Y-12691452D01*
X2731595Y-12681928D01*
X2731595Y-12700976D01*
X2912548Y-12500976D02*
X2874452Y-12500976D01*
X2855405Y-12510500D01*
X2845881Y-12520024D01*
X2826833Y-12548595D01*
X2817309Y-12586690D01*
X2817309Y-12662881D01*
X2826833Y-12681928D01*
X2836357Y-12691452D01*
X2855405Y-12700976D01*
X2893500Y-12700976D01*
X2912548Y-12691452D01*
X2922071Y-12681928D01*
X2931595Y-12662881D01*
X2931595Y-12615262D01*
X2922071Y-12596214D01*
X2912548Y-12586690D01*
X2893500Y-12577167D01*
X2855405Y-12577167D01*
X2836357Y-12586690D01*
X2826833Y-12596214D01*
X2817309Y-12615262D01*
X3112548Y-12500976D02*
X3017309Y-12500976D01*
X3007786Y-12596214D01*
X3017309Y-12586690D01*
X3036357Y-12577167D01*
X3083976Y-12577167D01*
X3103024Y-12586690D01*
X3112548Y-12596214D01*
X3122071Y-12615262D01*
X3122071Y-12662881D01*
X3112548Y-12681928D01*
X3103024Y-12691452D01*
X3083976Y-12700976D01*
X3036357Y-12700976D01*
X3017309Y-12691452D01*
X3007786Y-12681928D01*
X3245881Y-12500976D02*
X3264928Y-12500976D01*
X3283976Y-12510500D01*
X3293500Y-12520024D01*
X3303024Y-12539071D01*
X3312548Y-12577167D01*
X3312548Y-12624786D01*
X3303024Y-12662881D01*
X3293500Y-12681928D01*
X3283976Y-12691452D01*
X3264928Y-12700976D01*
X3245881Y-12700976D01*
X3226833Y-12691452D01*
X3217309Y-12681928D01*
X3207786Y-12662881D01*
X3198262Y-12624786D01*
X3198262Y-12577167D01*
X3207786Y-12539071D01*
X3217309Y-12520024D01*
X3226833Y-12510500D01*
X3245881Y-12500976D01*
X3398262Y-12700976D02*
X3398262Y-12567643D01*
X3398262Y-12586690D02*
X3407786Y-12577167D01*
X3426833Y-12567643D01*
X3455405Y-12567643D01*
X3474452Y-12577167D01*
X3483976Y-12596214D01*
X3483976Y-12700976D01*
X3483976Y-12596214D02*
X3493500Y-12577167D01*
X3512548Y-12567643D01*
X3541119Y-12567643D01*
X3560167Y-12577167D01*
X3569690Y-12596214D01*
X3569690Y-12700976D01*
X3664928Y-12700976D02*
X3664928Y-12567643D01*
X3664928Y-12586690D02*
X3674452Y-12577167D01*
X3693500Y-12567643D01*
X3722071Y-12567643D01*
X3741119Y-12577167D01*
X3750643Y-12596214D01*
X3750643Y-12700976D01*
X3750643Y-12596214D02*
X3760167Y-12577167D01*
X3779214Y-12567643D01*
X3807786Y-12567643D01*
X3826833Y-12577167D01*
X3836357Y-12596214D01*
X3836357Y-12700976D01*
X4226833Y-12491452D02*
X4055405Y-12748595D01*
X4483976Y-12500976D02*
X4503024Y-12500976D01*
X4522071Y-12510500D01*
X4531595Y-12520024D01*
X4541119Y-12539071D01*
X4550643Y-12577167D01*
X4550643Y-12624786D01*
X4541119Y-12662881D01*
X4531595Y-12681928D01*
X4522071Y-12691452D01*
X4503024Y-12700976D01*
X4483976Y-12700976D01*
X4464929Y-12691452D01*
X4455405Y-12681928D01*
X4445881Y-12662881D01*
X4436357Y-12624786D01*
X4436357Y-12577167D01*
X4445881Y-12539071D01*
X4455405Y-12520024D01*
X4464929Y-12510500D01*
X4483976Y-12500976D01*
X4636357Y-12681928D02*
X4645881Y-12691452D01*
X4636357Y-12700976D01*
X4626833Y-12691452D01*
X4636357Y-12681928D01*
X4636357Y-12700976D01*
X4769690Y-12500976D02*
X4788738Y-12500976D01*
X4807786Y-12510500D01*
X4817310Y-12520024D01*
X4826833Y-12539071D01*
X4836357Y-12577167D01*
X4836357Y-12624786D01*
X4826833Y-12662881D01*
X4817310Y-12681928D01*
X4807786Y-12691452D01*
X4788738Y-12700976D01*
X4769690Y-12700976D01*
X4750643Y-12691452D01*
X4741119Y-12681928D01*
X4731595Y-12662881D01*
X4722071Y-12624786D01*
X4722071Y-12577167D01*
X4731595Y-12539071D01*
X4741119Y-12520024D01*
X4750643Y-12510500D01*
X4769690Y-12500976D01*
X4912548Y-12520024D02*
X4922071Y-12510500D01*
X4941119Y-12500976D01*
X4988738Y-12500976D01*
X5007786Y-12510500D01*
X5017310Y-12520024D01*
X5026833Y-12539071D01*
X5026833Y-12558119D01*
X5017310Y-12586690D01*
X4903024Y-12700976D01*
X5026833Y-12700976D01*
X5207786Y-12500976D02*
X5112548Y-12500976D01*
X5103024Y-12596214D01*
X5112548Y-12586690D01*
X5131595Y-12577167D01*
X5179214Y-12577167D01*
X5198262Y-12586690D01*
X5207786Y-12596214D01*
X5217310Y-12615262D01*
X5217310Y-12662881D01*
X5207786Y-12681928D01*
X5198262Y-12691452D01*
X5179214Y-12700976D01*
X5131595Y-12700976D01*
X5112548Y-12691452D01*
X5103024Y-12681928D01*
X5388738Y-12500976D02*
X5350643Y-12500976D01*
X5331595Y-12510500D01*
X5322071Y-12520024D01*
X5303024Y-12548595D01*
X5293500Y-12586690D01*
X5293500Y-12662881D01*
X5303024Y-12681928D01*
X5312548Y-12691452D01*
X5331595Y-12700976D01*
X5369690Y-12700976D01*
X5388738Y-12691452D01*
X5398262Y-12681928D01*
X5407786Y-12662881D01*
X5407786Y-12615262D01*
X5398262Y-12596214D01*
X5388738Y-12586690D01*
X5369690Y-12577167D01*
X5331595Y-12577167D01*
X5312548Y-12586690D01*
X5303024Y-12596214D01*
X5293500Y-12615262D01*
X5483976Y-12500976D02*
X5483976Y-12539071D01*
X5560167Y-12500976D02*
X5560167Y-12539071D01*
X5855405Y-12777167D02*
X5845881Y-12767643D01*
X5826833Y-12739071D01*
X5817309Y-12720024D01*
X5807786Y-12691452D01*
X5798262Y-12643833D01*
X5798262Y-12605738D01*
X5807786Y-12558119D01*
X5817309Y-12529548D01*
X5826833Y-12510500D01*
X5845881Y-12481928D01*
X5855405Y-12472405D01*
X5912548Y-12500976D02*
X6045881Y-12500976D01*
X5960167Y-12700976D01*
X6274452Y-12700976D02*
X6274452Y-12500976D01*
X6360167Y-12700976D02*
X6360167Y-12596214D01*
X6350643Y-12577167D01*
X6331595Y-12567643D01*
X6303024Y-12567643D01*
X6283976Y-12577167D01*
X6274452Y-12586690D01*
X6483976Y-12700976D02*
X6464928Y-12691452D01*
X6455405Y-12681928D01*
X6445881Y-12662881D01*
X6445881Y-12605738D01*
X6455405Y-12586690D01*
X6464928Y-12577167D01*
X6483976Y-12567643D01*
X6512548Y-12567643D01*
X6531595Y-12577167D01*
X6541119Y-12586690D01*
X6550643Y-12605738D01*
X6550643Y-12662881D01*
X6541119Y-12681928D01*
X6531595Y-12691452D01*
X6512548Y-12700976D01*
X6483976Y-12700976D01*
X6664928Y-12700976D02*
X6645881Y-12691452D01*
X6636357Y-12672405D01*
X6636357Y-12500976D01*
X6817309Y-12691452D02*
X6798262Y-12700976D01*
X6760167Y-12700976D01*
X6741119Y-12691452D01*
X6731595Y-12672405D01*
X6731595Y-12596214D01*
X6741119Y-12577167D01*
X6760167Y-12567643D01*
X6798262Y-12567643D01*
X6817309Y-12577167D01*
X6826833Y-12596214D01*
X6826833Y-12615262D01*
X6731595Y-12634309D01*
X6903024Y-12691452D02*
X6922071Y-12700976D01*
X6960167Y-12700976D01*
X6979214Y-12691452D01*
X6988738Y-12672405D01*
X6988738Y-12662881D01*
X6979214Y-12643833D01*
X6960167Y-12634309D01*
X6931595Y-12634309D01*
X6912548Y-12624786D01*
X6903024Y-12605738D01*
X6903024Y-12596214D01*
X6912548Y-12577167D01*
X6931595Y-12567643D01*
X6960167Y-12567643D01*
X6979214Y-12577167D01*
X7055405Y-12777167D02*
X7064928Y-12767643D01*
X7083976Y-12739071D01*
X7093500Y-12720024D01*
X7103024Y-12691452D01*
X7112548Y-12643833D01*
X7112548Y-12605738D01*
X7103024Y-12558119D01*
X7093500Y-12529548D01*
X7083976Y-12510500D01*
X7064928Y-12481928D01*
X7055405Y-12472405D01*
D16*
X2241000Y-12917000D02*
X2283500Y-12874500D01*
X2241000Y-12832000D01*
X2198500Y-12874500D01*
X2241000Y-12917000D01*
D11*
X2579214Y-12764976D02*
X2598262Y-12764976D01*
X2617310Y-12774500D01*
X2626833Y-12784024D01*
X2636357Y-12803071D01*
X2645881Y-12841167D01*
X2645881Y-12888786D01*
X2636357Y-12926881D01*
X2626833Y-12945928D01*
X2617310Y-12955452D01*
X2598262Y-12964976D01*
X2579214Y-12964976D01*
X2560167Y-12955452D01*
X2550643Y-12945928D01*
X2541119Y-12926881D01*
X2531595Y-12888786D01*
X2531595Y-12841167D01*
X2541119Y-12803071D01*
X2550643Y-12784024D01*
X2560167Y-12774500D01*
X2579214Y-12764976D01*
X2731595Y-12945928D02*
X2741119Y-12955452D01*
X2731595Y-12964976D01*
X2722071Y-12955452D01*
X2731595Y-12945928D01*
X2731595Y-12964976D01*
X2855405Y-12850690D02*
X2836357Y-12841167D01*
X2826833Y-12831643D01*
X2817309Y-12812595D01*
X2817309Y-12803071D01*
X2826833Y-12784024D01*
X2836357Y-12774500D01*
X2855405Y-12764976D01*
X2893500Y-12764976D01*
X2912548Y-12774500D01*
X2922071Y-12784024D01*
X2931595Y-12803071D01*
X2931595Y-12812595D01*
X2922071Y-12831643D01*
X2912548Y-12841167D01*
X2893500Y-12850690D01*
X2855405Y-12850690D01*
X2836357Y-12860214D01*
X2826833Y-12869738D01*
X2817309Y-12888786D01*
X2817309Y-12926881D01*
X2826833Y-12945928D01*
X2836357Y-12955452D01*
X2855405Y-12964976D01*
X2893500Y-12964976D01*
X2912548Y-12955452D01*
X2922071Y-12945928D01*
X2931595Y-12926881D01*
X2931595Y-12888786D01*
X2922071Y-12869738D01*
X2912548Y-12860214D01*
X2893500Y-12850690D01*
X3112548Y-12764976D02*
X3017309Y-12764976D01*
X3007786Y-12860214D01*
X3017309Y-12850690D01*
X3036357Y-12841167D01*
X3083976Y-12841167D01*
X3103024Y-12850690D01*
X3112548Y-12860214D01*
X3122071Y-12879262D01*
X3122071Y-12926881D01*
X3112548Y-12945928D01*
X3103024Y-12955452D01*
X3083976Y-12964976D01*
X3036357Y-12964976D01*
X3017309Y-12955452D01*
X3007786Y-12945928D01*
X3245881Y-12764976D02*
X3264928Y-12764976D01*
X3283976Y-12774500D01*
X3293500Y-12784024D01*
X3303024Y-12803071D01*
X3312548Y-12841167D01*
X3312548Y-12888786D01*
X3303024Y-12926881D01*
X3293500Y-12945928D01*
X3283976Y-12955452D01*
X3264928Y-12964976D01*
X3245881Y-12964976D01*
X3226833Y-12955452D01*
X3217309Y-12945928D01*
X3207786Y-12926881D01*
X3198262Y-12888786D01*
X3198262Y-12841167D01*
X3207786Y-12803071D01*
X3217309Y-12784024D01*
X3226833Y-12774500D01*
X3245881Y-12764976D01*
X3398262Y-12964976D02*
X3398262Y-12831643D01*
X3398262Y-12850690D02*
X3407786Y-12841167D01*
X3426833Y-12831643D01*
X3455405Y-12831643D01*
X3474452Y-12841167D01*
X3483976Y-12860214D01*
X3483976Y-12964976D01*
X3483976Y-12860214D02*
X3493500Y-12841167D01*
X3512548Y-12831643D01*
X3541119Y-12831643D01*
X3560167Y-12841167D01*
X3569690Y-12860214D01*
X3569690Y-12964976D01*
X3664928Y-12964976D02*
X3664928Y-12831643D01*
X3664928Y-12850690D02*
X3674452Y-12841167D01*
X3693500Y-12831643D01*
X3722071Y-12831643D01*
X3741119Y-12841167D01*
X3750643Y-12860214D01*
X3750643Y-12964976D01*
X3750643Y-12860214D02*
X3760167Y-12841167D01*
X3779214Y-12831643D01*
X3807786Y-12831643D01*
X3826833Y-12841167D01*
X3836357Y-12860214D01*
X3836357Y-12964976D01*
X4226833Y-12755452D02*
X4055405Y-13012595D01*
X4483976Y-12764976D02*
X4503024Y-12764976D01*
X4522071Y-12774500D01*
X4531595Y-12784024D01*
X4541119Y-12803071D01*
X4550643Y-12841167D01*
X4550643Y-12888786D01*
X4541119Y-12926881D01*
X4531595Y-12945928D01*
X4522071Y-12955452D01*
X4503024Y-12964976D01*
X4483976Y-12964976D01*
X4464929Y-12955452D01*
X4455405Y-12945928D01*
X4445881Y-12926881D01*
X4436357Y-12888786D01*
X4436357Y-12841167D01*
X4445881Y-12803071D01*
X4455405Y-12784024D01*
X4464929Y-12774500D01*
X4483976Y-12764976D01*
X4636357Y-12945928D02*
X4645881Y-12955452D01*
X4636357Y-12964976D01*
X4626833Y-12955452D01*
X4636357Y-12945928D01*
X4636357Y-12964976D01*
X4769690Y-12764976D02*
X4788738Y-12764976D01*
X4807786Y-12774500D01*
X4817310Y-12784024D01*
X4826833Y-12803071D01*
X4836357Y-12841167D01*
X4836357Y-12888786D01*
X4826833Y-12926881D01*
X4817310Y-12945928D01*
X4807786Y-12955452D01*
X4788738Y-12964976D01*
X4769690Y-12964976D01*
X4750643Y-12955452D01*
X4741119Y-12945928D01*
X4731595Y-12926881D01*
X4722071Y-12888786D01*
X4722071Y-12841167D01*
X4731595Y-12803071D01*
X4741119Y-12784024D01*
X4750643Y-12774500D01*
X4769690Y-12764976D01*
X4903024Y-12764976D02*
X5026833Y-12764976D01*
X4960167Y-12841167D01*
X4988738Y-12841167D01*
X5007786Y-12850690D01*
X5017310Y-12860214D01*
X5026833Y-12879262D01*
X5026833Y-12926881D01*
X5017310Y-12945928D01*
X5007786Y-12955452D01*
X4988738Y-12964976D01*
X4931595Y-12964976D01*
X4912548Y-12955452D01*
X4903024Y-12945928D01*
X5093500Y-12764976D02*
X5217310Y-12764976D01*
X5150643Y-12841167D01*
X5179214Y-12841167D01*
X5198262Y-12850690D01*
X5207786Y-12860214D01*
X5217310Y-12879262D01*
X5217310Y-12926881D01*
X5207786Y-12945928D01*
X5198262Y-12955452D01*
X5179214Y-12964976D01*
X5122071Y-12964976D01*
X5103024Y-12955452D01*
X5093500Y-12945928D01*
X5398262Y-12764976D02*
X5303024Y-12764976D01*
X5293500Y-12860214D01*
X5303024Y-12850690D01*
X5322071Y-12841167D01*
X5369690Y-12841167D01*
X5388738Y-12850690D01*
X5398262Y-12860214D01*
X5407786Y-12879262D01*
X5407786Y-12926881D01*
X5398262Y-12945928D01*
X5388738Y-12955452D01*
X5369690Y-12964976D01*
X5322071Y-12964976D01*
X5303024Y-12955452D01*
X5293500Y-12945928D01*
X5483976Y-12764976D02*
X5483976Y-12803071D01*
X5560167Y-12764976D02*
X5560167Y-12803071D01*
X5855405Y-13041167D02*
X5845881Y-13031643D01*
X5826833Y-13003071D01*
X5817309Y-12984024D01*
X5807786Y-12955452D01*
X5798262Y-12907833D01*
X5798262Y-12869738D01*
X5807786Y-12822119D01*
X5817309Y-12793548D01*
X5826833Y-12774500D01*
X5845881Y-12745928D01*
X5855405Y-12736405D01*
X5969690Y-12764976D02*
X5988738Y-12764976D01*
X6007786Y-12774500D01*
X6017309Y-12784024D01*
X6026833Y-12803071D01*
X6036357Y-12841167D01*
X6036357Y-12888786D01*
X6026833Y-12926881D01*
X6017309Y-12945928D01*
X6007786Y-12955452D01*
X5988738Y-12964976D01*
X5969690Y-12964976D01*
X5950643Y-12955452D01*
X5941119Y-12945928D01*
X5931595Y-12926881D01*
X5922071Y-12888786D01*
X5922071Y-12841167D01*
X5931595Y-12803071D01*
X5941119Y-12784024D01*
X5950643Y-12774500D01*
X5969690Y-12764976D01*
X6274452Y-12964976D02*
X6274452Y-12764976D01*
X6360167Y-12964976D02*
X6360167Y-12860214D01*
X6350643Y-12841167D01*
X6331595Y-12831643D01*
X6303024Y-12831643D01*
X6283976Y-12841167D01*
X6274452Y-12850690D01*
X6483976Y-12964976D02*
X6464928Y-12955452D01*
X6455405Y-12945928D01*
X6445881Y-12926881D01*
X6445881Y-12869738D01*
X6455405Y-12850690D01*
X6464928Y-12841167D01*
X6483976Y-12831643D01*
X6512548Y-12831643D01*
X6531595Y-12841167D01*
X6541119Y-12850690D01*
X6550643Y-12869738D01*
X6550643Y-12926881D01*
X6541119Y-12945928D01*
X6531595Y-12955452D01*
X6512548Y-12964976D01*
X6483976Y-12964976D01*
X6664928Y-12964976D02*
X6645881Y-12955452D01*
X6636357Y-12936405D01*
X6636357Y-12764976D01*
X6817309Y-12955452D02*
X6798262Y-12964976D01*
X6760167Y-12964976D01*
X6741119Y-12955452D01*
X6731595Y-12936405D01*
X6731595Y-12860214D01*
X6741119Y-12841167D01*
X6760167Y-12831643D01*
X6798262Y-12831643D01*
X6817309Y-12841167D01*
X6826833Y-12860214D01*
X6826833Y-12879262D01*
X6731595Y-12898309D01*
X6903024Y-12955452D02*
X6922071Y-12964976D01*
X6960167Y-12964976D01*
X6979214Y-12955452D01*
X6988738Y-12936405D01*
X6988738Y-12926881D01*
X6979214Y-12907833D01*
X6960167Y-12898309D01*
X6931595Y-12898309D01*
X6912548Y-12888786D01*
X6903024Y-12869738D01*
X6903024Y-12860214D01*
X6912548Y-12841167D01*
X6931595Y-12831643D01*
X6960167Y-12831643D01*
X6979214Y-12841167D01*
X7226833Y-12888786D02*
X7379214Y-12888786D01*
X7303024Y-12964976D02*
X7303024Y-12812595D01*
X7617309Y-12784024D02*
X7626833Y-12774500D01*
X7645881Y-12764976D01*
X7693500Y-12764976D01*
X7712548Y-12774500D01*
X7722071Y-12784024D01*
X7731595Y-12803071D01*
X7731595Y-12822119D01*
X7722071Y-12850690D01*
X7607786Y-12964976D01*
X7731595Y-12964976D01*
X7960167Y-12955452D02*
X7979214Y-12964976D01*
X8017309Y-12964976D01*
X8036357Y-12955452D01*
X8045881Y-12936405D01*
X8045881Y-12926881D01*
X8036357Y-12907833D01*
X8017309Y-12898309D01*
X7988738Y-12898309D01*
X7969690Y-12888786D01*
X7960167Y-12869738D01*
X7960167Y-12860214D01*
X7969690Y-12841167D01*
X7988738Y-12831643D01*
X8017309Y-12831643D01*
X8036357Y-12841167D01*
X8160167Y-12964976D02*
X8141119Y-12955452D01*
X8131595Y-12936405D01*
X8131595Y-12764976D01*
X8264928Y-12964976D02*
X8245881Y-12955452D01*
X8236357Y-12945928D01*
X8226833Y-12926881D01*
X8226833Y-12869738D01*
X8236357Y-12850690D01*
X8245881Y-12841167D01*
X8264928Y-12831643D01*
X8293500Y-12831643D01*
X8312548Y-12841167D01*
X8322071Y-12850690D01*
X8331595Y-12869738D01*
X8331595Y-12926881D01*
X8322071Y-12945928D01*
X8312548Y-12955452D01*
X8293500Y-12964976D01*
X8264928Y-12964976D01*
X8388738Y-12831643D02*
X8464929Y-12831643D01*
X8417310Y-12764976D02*
X8417310Y-12936405D01*
X8426833Y-12955452D01*
X8445881Y-12964976D01*
X8464929Y-12964976D01*
X8522071Y-12955452D02*
X8541119Y-12964976D01*
X8579214Y-12964976D01*
X8598262Y-12955452D01*
X8607786Y-12936405D01*
X8607786Y-12926881D01*
X8598262Y-12907833D01*
X8579214Y-12898309D01*
X8550643Y-12898309D01*
X8531595Y-12888786D01*
X8522071Y-12869738D01*
X8522071Y-12860214D01*
X8531595Y-12841167D01*
X8550643Y-12831643D01*
X8579214Y-12831643D01*
X8598262Y-12841167D01*
X8674452Y-13041167D02*
X8683976Y-13031643D01*
X8703024Y-13003071D01*
X8712548Y-12984024D01*
X8722071Y-12955452D01*
X8731595Y-12907833D01*
X8731595Y-12869738D01*
X8722071Y-12822119D01*
X8712548Y-12793548D01*
X8703024Y-12774500D01*
X8683976Y-12745928D01*
X8674452Y-12736405D01*
D17*
X2183500Y-13088500D02*
X2283500Y-13188500D01*
X2283500Y-13088500D02*
X2183500Y-13188500D01*
X2283500Y-13138500D02*
G75*
G03*
X2283500Y-13138500I-50000J0D01*
G01*
D11*
X2645881Y-13228976D02*
X2531595Y-13228976D01*
X2588738Y-13228976D02*
X2588738Y-13028976D01*
X2569690Y-13057548D01*
X2550643Y-13076595D01*
X2531595Y-13086119D01*
X2731595Y-13209928D02*
X2741119Y-13219452D01*
X2731595Y-13228976D01*
X2722071Y-13219452D01*
X2731595Y-13209928D01*
X2731595Y-13228976D01*
X2864928Y-13028976D02*
X2883976Y-13028976D01*
X2903024Y-13038500D01*
X2912548Y-13048024D01*
X2922071Y-13067071D01*
X2931595Y-13105167D01*
X2931595Y-13152786D01*
X2922071Y-13190881D01*
X2912548Y-13209928D01*
X2903024Y-13219452D01*
X2883976Y-13228976D01*
X2864928Y-13228976D01*
X2845881Y-13219452D01*
X2836357Y-13209928D01*
X2826833Y-13190881D01*
X2817309Y-13152786D01*
X2817309Y-13105167D01*
X2826833Y-13067071D01*
X2836357Y-13048024D01*
X2845881Y-13038500D01*
X2864928Y-13028976D01*
X3055405Y-13028976D02*
X3074452Y-13028976D01*
X3093500Y-13038500D01*
X3103024Y-13048024D01*
X3112548Y-13067071D01*
X3122071Y-13105167D01*
X3122071Y-13152786D01*
X3112548Y-13190881D01*
X3103024Y-13209928D01*
X3093500Y-13219452D01*
X3074452Y-13228976D01*
X3055405Y-13228976D01*
X3036357Y-13219452D01*
X3026833Y-13209928D01*
X3017309Y-13190881D01*
X3007786Y-13152786D01*
X3007786Y-13105167D01*
X3017309Y-13067071D01*
X3026833Y-13048024D01*
X3036357Y-13038500D01*
X3055405Y-13028976D01*
X3245881Y-13028976D02*
X3264928Y-13028976D01*
X3283976Y-13038500D01*
X3293500Y-13048024D01*
X3303024Y-13067071D01*
X3312548Y-13105167D01*
X3312548Y-13152786D01*
X3303024Y-13190881D01*
X3293500Y-13209928D01*
X3283976Y-13219452D01*
X3264928Y-13228976D01*
X3245881Y-13228976D01*
X3226833Y-13219452D01*
X3217309Y-13209928D01*
X3207786Y-13190881D01*
X3198262Y-13152786D01*
X3198262Y-13105167D01*
X3207786Y-13067071D01*
X3217309Y-13048024D01*
X3226833Y-13038500D01*
X3245881Y-13028976D01*
X3398262Y-13228976D02*
X3398262Y-13095643D01*
X3398262Y-13114690D02*
X3407786Y-13105167D01*
X3426833Y-13095643D01*
X3455405Y-13095643D01*
X3474452Y-13105167D01*
X3483976Y-13124214D01*
X3483976Y-13228976D01*
X3483976Y-13124214D02*
X3493500Y-13105167D01*
X3512548Y-13095643D01*
X3541119Y-13095643D01*
X3560167Y-13105167D01*
X3569690Y-13124214D01*
X3569690Y-13228976D01*
X3664928Y-13228976D02*
X3664928Y-13095643D01*
X3664928Y-13114690D02*
X3674452Y-13105167D01*
X3693500Y-13095643D01*
X3722071Y-13095643D01*
X3741119Y-13105167D01*
X3750643Y-13124214D01*
X3750643Y-13228976D01*
X3750643Y-13124214D02*
X3760167Y-13105167D01*
X3779214Y-13095643D01*
X3807786Y-13095643D01*
X3826833Y-13105167D01*
X3836357Y-13124214D01*
X3836357Y-13228976D01*
X4226833Y-13019452D02*
X4055405Y-13276595D01*
X4483976Y-13028976D02*
X4503024Y-13028976D01*
X4522071Y-13038500D01*
X4531595Y-13048024D01*
X4541119Y-13067071D01*
X4550643Y-13105167D01*
X4550643Y-13152786D01*
X4541119Y-13190881D01*
X4531595Y-13209928D01*
X4522071Y-13219452D01*
X4503024Y-13228976D01*
X4483976Y-13228976D01*
X4464929Y-13219452D01*
X4455405Y-13209928D01*
X4445881Y-13190881D01*
X4436357Y-13152786D01*
X4436357Y-13105167D01*
X4445881Y-13067071D01*
X4455405Y-13048024D01*
X4464929Y-13038500D01*
X4483976Y-13028976D01*
X4636357Y-13209928D02*
X4645881Y-13219452D01*
X4636357Y-13228976D01*
X4626833Y-13219452D01*
X4636357Y-13209928D01*
X4636357Y-13228976D01*
X4769690Y-13028976D02*
X4788738Y-13028976D01*
X4807786Y-13038500D01*
X4817310Y-13048024D01*
X4826833Y-13067071D01*
X4836357Y-13105167D01*
X4836357Y-13152786D01*
X4826833Y-13190881D01*
X4817310Y-13209928D01*
X4807786Y-13219452D01*
X4788738Y-13228976D01*
X4769690Y-13228976D01*
X4750643Y-13219452D01*
X4741119Y-13209928D01*
X4731595Y-13190881D01*
X4722071Y-13152786D01*
X4722071Y-13105167D01*
X4731595Y-13067071D01*
X4741119Y-13048024D01*
X4750643Y-13038500D01*
X4769690Y-13028976D01*
X4903024Y-13028976D02*
X5026833Y-13028976D01*
X4960167Y-13105167D01*
X4988738Y-13105167D01*
X5007786Y-13114690D01*
X5017310Y-13124214D01*
X5026833Y-13143262D01*
X5026833Y-13190881D01*
X5017310Y-13209928D01*
X5007786Y-13219452D01*
X4988738Y-13228976D01*
X4931595Y-13228976D01*
X4912548Y-13219452D01*
X4903024Y-13209928D01*
X5122071Y-13228976D02*
X5160167Y-13228976D01*
X5179214Y-13219452D01*
X5188738Y-13209928D01*
X5207786Y-13181357D01*
X5217310Y-13143262D01*
X5217310Y-13067071D01*
X5207786Y-13048024D01*
X5198262Y-13038500D01*
X5179214Y-13028976D01*
X5141119Y-13028976D01*
X5122071Y-13038500D01*
X5112548Y-13048024D01*
X5103024Y-13067071D01*
X5103024Y-13114690D01*
X5112548Y-13133738D01*
X5122071Y-13143262D01*
X5141119Y-13152786D01*
X5179214Y-13152786D01*
X5198262Y-13143262D01*
X5207786Y-13133738D01*
X5217310Y-13114690D01*
X5388738Y-13095643D02*
X5388738Y-13228976D01*
X5341119Y-13019452D02*
X5293500Y-13162309D01*
X5417310Y-13162309D01*
X5483976Y-13028976D02*
X5483976Y-13067071D01*
X5560167Y-13028976D02*
X5560167Y-13067071D01*
X5855405Y-13305167D02*
X5845881Y-13295643D01*
X5826833Y-13267071D01*
X5817309Y-13248024D01*
X5807786Y-13219452D01*
X5798262Y-13171833D01*
X5798262Y-13133738D01*
X5807786Y-13086119D01*
X5817309Y-13057548D01*
X5826833Y-13038500D01*
X5845881Y-13009928D01*
X5855405Y-13000405D01*
X5912548Y-13028976D02*
X6036357Y-13028976D01*
X5969690Y-13105167D01*
X5998262Y-13105167D01*
X6017309Y-13114690D01*
X6026833Y-13124214D01*
X6036357Y-13143262D01*
X6036357Y-13190881D01*
X6026833Y-13209928D01*
X6017309Y-13219452D01*
X5998262Y-13228976D01*
X5941119Y-13228976D01*
X5922071Y-13219452D01*
X5912548Y-13209928D01*
X6274452Y-13228976D02*
X6274452Y-13028976D01*
X6360167Y-13228976D02*
X6360167Y-13124214D01*
X6350643Y-13105167D01*
X6331595Y-13095643D01*
X6303024Y-13095643D01*
X6283976Y-13105167D01*
X6274452Y-13114690D01*
X6483976Y-13228976D02*
X6464928Y-13219452D01*
X6455405Y-13209928D01*
X6445881Y-13190881D01*
X6445881Y-13133738D01*
X6455405Y-13114690D01*
X6464928Y-13105167D01*
X6483976Y-13095643D01*
X6512548Y-13095643D01*
X6531595Y-13105167D01*
X6541119Y-13114690D01*
X6550643Y-13133738D01*
X6550643Y-13190881D01*
X6541119Y-13209928D01*
X6531595Y-13219452D01*
X6512548Y-13228976D01*
X6483976Y-13228976D01*
X6664928Y-13228976D02*
X6645881Y-13219452D01*
X6636357Y-13200405D01*
X6636357Y-13028976D01*
X6817309Y-13219452D02*
X6798262Y-13228976D01*
X6760167Y-13228976D01*
X6741119Y-13219452D01*
X6731595Y-13200405D01*
X6731595Y-13124214D01*
X6741119Y-13105167D01*
X6760167Y-13095643D01*
X6798262Y-13095643D01*
X6817309Y-13105167D01*
X6826833Y-13124214D01*
X6826833Y-13143262D01*
X6731595Y-13162309D01*
X6903024Y-13219452D02*
X6922071Y-13228976D01*
X6960167Y-13228976D01*
X6979214Y-13219452D01*
X6988738Y-13200405D01*
X6988738Y-13190881D01*
X6979214Y-13171833D01*
X6960167Y-13162309D01*
X6931595Y-13162309D01*
X6912548Y-13152786D01*
X6903024Y-13133738D01*
X6903024Y-13124214D01*
X6912548Y-13105167D01*
X6931595Y-13095643D01*
X6960167Y-13095643D01*
X6979214Y-13105167D01*
X7226833Y-13152786D02*
X7379214Y-13152786D01*
X7303024Y-13228976D02*
X7303024Y-13076595D01*
X7607786Y-13028976D02*
X7731595Y-13028976D01*
X7664928Y-13105167D01*
X7693500Y-13105167D01*
X7712548Y-13114690D01*
X7722071Y-13124214D01*
X7731595Y-13143262D01*
X7731595Y-13190881D01*
X7722071Y-13209928D01*
X7712548Y-13219452D01*
X7693500Y-13228976D01*
X7636357Y-13228976D01*
X7617309Y-13219452D01*
X7607786Y-13209928D01*
X7960167Y-13219452D02*
X7979214Y-13228976D01*
X8017309Y-13228976D01*
X8036357Y-13219452D01*
X8045881Y-13200405D01*
X8045881Y-13190881D01*
X8036357Y-13171833D01*
X8017309Y-13162309D01*
X7988738Y-13162309D01*
X7969690Y-13152786D01*
X7960167Y-13133738D01*
X7960167Y-13124214D01*
X7969690Y-13105167D01*
X7988738Y-13095643D01*
X8017309Y-13095643D01*
X8036357Y-13105167D01*
X8160167Y-13228976D02*
X8141119Y-13219452D01*
X8131595Y-13200405D01*
X8131595Y-13028976D01*
X8264928Y-13228976D02*
X8245881Y-13219452D01*
X8236357Y-13209928D01*
X8226833Y-13190881D01*
X8226833Y-13133738D01*
X8236357Y-13114690D01*
X8245881Y-13105167D01*
X8264928Y-13095643D01*
X8293500Y-13095643D01*
X8312548Y-13105167D01*
X8322071Y-13114690D01*
X8331595Y-13133738D01*
X8331595Y-13190881D01*
X8322071Y-13209928D01*
X8312548Y-13219452D01*
X8293500Y-13228976D01*
X8264928Y-13228976D01*
X8388738Y-13095643D02*
X8464929Y-13095643D01*
X8417310Y-13028976D02*
X8417310Y-13200405D01*
X8426833Y-13219452D01*
X8445881Y-13228976D01*
X8464929Y-13228976D01*
X8522071Y-13219452D02*
X8541119Y-13228976D01*
X8579214Y-13228976D01*
X8598262Y-13219452D01*
X8607786Y-13200405D01*
X8607786Y-13190881D01*
X8598262Y-13171833D01*
X8579214Y-13162309D01*
X8550643Y-13162309D01*
X8531595Y-13152786D01*
X8522071Y-13133738D01*
X8522071Y-13124214D01*
X8531595Y-13105167D01*
X8550643Y-13095643D01*
X8579214Y-13095643D01*
X8598262Y-13105167D01*
X8674452Y-13305167D02*
X8683976Y-13295643D01*
X8703024Y-13267071D01*
X8712548Y-13248024D01*
X8722071Y-13219452D01*
X8731595Y-13171833D01*
X8731595Y-13133738D01*
X8722071Y-13086119D01*
X8712548Y-13057548D01*
X8703024Y-13038500D01*
X8683976Y-13009928D01*
X8674452Y-13000405D01*
D18*
X2113500Y-13317500D02*
X2283500Y-13487500D01*
X2283500Y-13317500D02*
X2113500Y-13487500D01*
X2198500Y-13317500D02*
X2198500Y-13487500D01*
X2113500Y-13402500D02*
X2283500Y-13402500D01*
D11*
X2645881Y-13492976D02*
X2531595Y-13492976D01*
X2588738Y-13492976D02*
X2588738Y-13292976D01*
X2569690Y-13321548D01*
X2550643Y-13340595D01*
X2531595Y-13350119D01*
X2731595Y-13473928D02*
X2741119Y-13483452D01*
X2731595Y-13492976D01*
X2722071Y-13483452D01*
X2731595Y-13473928D01*
X2731595Y-13492976D01*
X2807786Y-13292976D02*
X2941119Y-13292976D01*
X2855405Y-13492976D01*
X3055405Y-13292976D02*
X3074452Y-13292976D01*
X3093500Y-13302500D01*
X3103024Y-13312024D01*
X3112548Y-13331071D01*
X3122071Y-13369167D01*
X3122071Y-13416786D01*
X3112548Y-13454881D01*
X3103024Y-13473928D01*
X3093500Y-13483452D01*
X3074452Y-13492976D01*
X3055405Y-13492976D01*
X3036357Y-13483452D01*
X3026833Y-13473928D01*
X3017309Y-13454881D01*
X3007786Y-13416786D01*
X3007786Y-13369167D01*
X3017309Y-13331071D01*
X3026833Y-13312024D01*
X3036357Y-13302500D01*
X3055405Y-13292976D01*
X3245881Y-13292976D02*
X3264928Y-13292976D01*
X3283976Y-13302500D01*
X3293500Y-13312024D01*
X3303024Y-13331071D01*
X3312548Y-13369167D01*
X3312548Y-13416786D01*
X3303024Y-13454881D01*
X3293500Y-13473928D01*
X3283976Y-13483452D01*
X3264928Y-13492976D01*
X3245881Y-13492976D01*
X3226833Y-13483452D01*
X3217309Y-13473928D01*
X3207786Y-13454881D01*
X3198262Y-13416786D01*
X3198262Y-13369167D01*
X3207786Y-13331071D01*
X3217309Y-13312024D01*
X3226833Y-13302500D01*
X3245881Y-13292976D01*
X3398262Y-13492976D02*
X3398262Y-13359643D01*
X3398262Y-13378690D02*
X3407786Y-13369167D01*
X3426833Y-13359643D01*
X3455405Y-13359643D01*
X3474452Y-13369167D01*
X3483976Y-13388214D01*
X3483976Y-13492976D01*
X3483976Y-13388214D02*
X3493500Y-13369167D01*
X3512548Y-13359643D01*
X3541119Y-13359643D01*
X3560167Y-13369167D01*
X3569690Y-13388214D01*
X3569690Y-13492976D01*
X3664928Y-13492976D02*
X3664928Y-13359643D01*
X3664928Y-13378690D02*
X3674452Y-13369167D01*
X3693500Y-13359643D01*
X3722071Y-13359643D01*
X3741119Y-13369167D01*
X3750643Y-13388214D01*
X3750643Y-13492976D01*
X3750643Y-13388214D02*
X3760167Y-13369167D01*
X3779214Y-13359643D01*
X3807786Y-13359643D01*
X3826833Y-13369167D01*
X3836357Y-13388214D01*
X3836357Y-13492976D01*
X4226833Y-13283452D02*
X4055405Y-13540595D01*
X4483976Y-13292976D02*
X4503024Y-13292976D01*
X4522071Y-13302500D01*
X4531595Y-13312024D01*
X4541119Y-13331071D01*
X4550643Y-13369167D01*
X4550643Y-13416786D01*
X4541119Y-13454881D01*
X4531595Y-13473928D01*
X4522071Y-13483452D01*
X4503024Y-13492976D01*
X4483976Y-13492976D01*
X4464929Y-13483452D01*
X4455405Y-13473928D01*
X4445881Y-13454881D01*
X4436357Y-13416786D01*
X4436357Y-13369167D01*
X4445881Y-13331071D01*
X4455405Y-13312024D01*
X4464929Y-13302500D01*
X4483976Y-13292976D01*
X4636357Y-13473928D02*
X4645881Y-13483452D01*
X4636357Y-13492976D01*
X4626833Y-13483452D01*
X4636357Y-13473928D01*
X4636357Y-13492976D01*
X4769690Y-13292976D02*
X4788738Y-13292976D01*
X4807786Y-13302500D01*
X4817310Y-13312024D01*
X4826833Y-13331071D01*
X4836357Y-13369167D01*
X4836357Y-13416786D01*
X4826833Y-13454881D01*
X4817310Y-13473928D01*
X4807786Y-13483452D01*
X4788738Y-13492976D01*
X4769690Y-13492976D01*
X4750643Y-13483452D01*
X4741119Y-13473928D01*
X4731595Y-13454881D01*
X4722071Y-13416786D01*
X4722071Y-13369167D01*
X4731595Y-13331071D01*
X4741119Y-13312024D01*
X4750643Y-13302500D01*
X4769690Y-13292976D01*
X5007786Y-13292976D02*
X4969690Y-13292976D01*
X4950643Y-13302500D01*
X4941119Y-13312024D01*
X4922071Y-13340595D01*
X4912548Y-13378690D01*
X4912548Y-13454881D01*
X4922071Y-13473928D01*
X4931595Y-13483452D01*
X4950643Y-13492976D01*
X4988738Y-13492976D01*
X5007786Y-13483452D01*
X5017310Y-13473928D01*
X5026833Y-13454881D01*
X5026833Y-13407262D01*
X5017310Y-13388214D01*
X5007786Y-13378690D01*
X4988738Y-13369167D01*
X4950643Y-13369167D01*
X4931595Y-13378690D01*
X4922071Y-13388214D01*
X4912548Y-13407262D01*
X5198262Y-13292976D02*
X5160167Y-13292976D01*
X5141119Y-13302500D01*
X5131595Y-13312024D01*
X5112548Y-13340595D01*
X5103024Y-13378690D01*
X5103024Y-13454881D01*
X5112548Y-13473928D01*
X5122071Y-13483452D01*
X5141119Y-13492976D01*
X5179214Y-13492976D01*
X5198262Y-13483452D01*
X5207786Y-13473928D01*
X5217310Y-13454881D01*
X5217310Y-13407262D01*
X5207786Y-13388214D01*
X5198262Y-13378690D01*
X5179214Y-13369167D01*
X5141119Y-13369167D01*
X5122071Y-13378690D01*
X5112548Y-13388214D01*
X5103024Y-13407262D01*
X5312548Y-13492976D02*
X5350643Y-13492976D01*
X5369690Y-13483452D01*
X5379214Y-13473928D01*
X5398262Y-13445357D01*
X5407786Y-13407262D01*
X5407786Y-13331071D01*
X5398262Y-13312024D01*
X5388738Y-13302500D01*
X5369690Y-13292976D01*
X5331595Y-13292976D01*
X5312548Y-13302500D01*
X5303024Y-13312024D01*
X5293500Y-13331071D01*
X5293500Y-13378690D01*
X5303024Y-13397738D01*
X5312548Y-13407262D01*
X5331595Y-13416786D01*
X5369690Y-13416786D01*
X5388738Y-13407262D01*
X5398262Y-13397738D01*
X5407786Y-13378690D01*
X5483976Y-13292976D02*
X5483976Y-13331071D01*
X5560167Y-13292976D02*
X5560167Y-13331071D01*
X5855405Y-13569167D02*
X5845881Y-13559643D01*
X5826833Y-13531071D01*
X5817309Y-13512024D01*
X5807786Y-13483452D01*
X5798262Y-13435833D01*
X5798262Y-13397738D01*
X5807786Y-13350119D01*
X5817309Y-13321548D01*
X5826833Y-13302500D01*
X5845881Y-13273928D01*
X5855405Y-13264405D01*
X6036357Y-13492976D02*
X5922071Y-13492976D01*
X5979214Y-13492976D02*
X5979214Y-13292976D01*
X5960167Y-13321548D01*
X5941119Y-13340595D01*
X5922071Y-13350119D01*
X6217309Y-13292976D02*
X6122071Y-13292976D01*
X6112548Y-13388214D01*
X6122071Y-13378690D01*
X6141119Y-13369167D01*
X6188738Y-13369167D01*
X6207786Y-13378690D01*
X6217309Y-13388214D01*
X6226833Y-13407262D01*
X6226833Y-13454881D01*
X6217309Y-13473928D01*
X6207786Y-13483452D01*
X6188738Y-13492976D01*
X6141119Y-13492976D01*
X6122071Y-13483452D01*
X6112548Y-13473928D01*
X6464928Y-13492976D02*
X6464928Y-13292976D01*
X6550643Y-13492976D02*
X6550643Y-13388214D01*
X6541119Y-13369167D01*
X6522071Y-13359643D01*
X6493500Y-13359643D01*
X6474452Y-13369167D01*
X6464928Y-13378690D01*
X6674452Y-13492976D02*
X6655405Y-13483452D01*
X6645881Y-13473928D01*
X6636357Y-13454881D01*
X6636357Y-13397738D01*
X6645881Y-13378690D01*
X6655405Y-13369167D01*
X6674452Y-13359643D01*
X6703024Y-13359643D01*
X6722071Y-13369167D01*
X6731595Y-13378690D01*
X6741119Y-13397738D01*
X6741119Y-13454881D01*
X6731595Y-13473928D01*
X6722071Y-13483452D01*
X6703024Y-13492976D01*
X6674452Y-13492976D01*
X6855405Y-13492976D02*
X6836357Y-13483452D01*
X6826833Y-13464405D01*
X6826833Y-13292976D01*
X7007786Y-13483452D02*
X6988738Y-13492976D01*
X6950643Y-13492976D01*
X6931595Y-13483452D01*
X6922071Y-13464405D01*
X6922071Y-13388214D01*
X6931595Y-13369167D01*
X6950643Y-13359643D01*
X6988738Y-13359643D01*
X7007786Y-13369167D01*
X7017309Y-13388214D01*
X7017309Y-13407262D01*
X6922071Y-13426309D01*
X7093500Y-13483452D02*
X7112548Y-13492976D01*
X7150643Y-13492976D01*
X7169690Y-13483452D01*
X7179214Y-13464405D01*
X7179214Y-13454881D01*
X7169690Y-13435833D01*
X7150643Y-13426309D01*
X7122071Y-13426309D01*
X7103024Y-13416786D01*
X7093500Y-13397738D01*
X7093500Y-13388214D01*
X7103024Y-13369167D01*
X7122071Y-13359643D01*
X7150643Y-13359643D01*
X7169690Y-13369167D01*
X7245881Y-13569167D02*
X7255405Y-13559643D01*
X7274452Y-13531071D01*
X7283976Y-13512024D01*
X7293500Y-13483452D01*
X7303024Y-13435833D01*
X7303024Y-13397738D01*
X7293500Y-13350119D01*
X7283976Y-13321548D01*
X7274452Y-13302500D01*
X7255405Y-13273928D01*
X7245881Y-13264405D01*
D19*
X2103500Y-13602500D02*
X2283500Y-13782500D01*
X2283500Y-13602500D02*
X2103500Y-13782500D01*
X2257140Y-13756140D02*
X2257140Y-13628860D01*
X2129860Y-13628860D01*
X2129860Y-13756140D01*
X2257140Y-13756140D01*
D11*
X2645881Y-13782976D02*
X2531595Y-13782976D01*
X2588738Y-13782976D02*
X2588738Y-13582976D01*
X2569690Y-13611548D01*
X2550643Y-13630595D01*
X2531595Y-13640119D01*
X2731595Y-13763928D02*
X2741119Y-13773452D01*
X2731595Y-13782976D01*
X2722071Y-13773452D01*
X2731595Y-13763928D01*
X2731595Y-13782976D01*
X2855405Y-13668690D02*
X2836357Y-13659167D01*
X2826833Y-13649643D01*
X2817309Y-13630595D01*
X2817309Y-13621071D01*
X2826833Y-13602024D01*
X2836357Y-13592500D01*
X2855405Y-13582976D01*
X2893500Y-13582976D01*
X2912548Y-13592500D01*
X2922071Y-13602024D01*
X2931595Y-13621071D01*
X2931595Y-13630595D01*
X2922071Y-13649643D01*
X2912548Y-13659167D01*
X2893500Y-13668690D01*
X2855405Y-13668690D01*
X2836357Y-13678214D01*
X2826833Y-13687738D01*
X2817309Y-13706786D01*
X2817309Y-13744881D01*
X2826833Y-13763928D01*
X2836357Y-13773452D01*
X2855405Y-13782976D01*
X2893500Y-13782976D01*
X2912548Y-13773452D01*
X2922071Y-13763928D01*
X2931595Y-13744881D01*
X2931595Y-13706786D01*
X2922071Y-13687738D01*
X2912548Y-13678214D01*
X2893500Y-13668690D01*
X3055405Y-13582976D02*
X3074452Y-13582976D01*
X3093500Y-13592500D01*
X3103024Y-13602024D01*
X3112548Y-13621071D01*
X3122071Y-13659167D01*
X3122071Y-13706786D01*
X3112548Y-13744881D01*
X3103024Y-13763928D01*
X3093500Y-13773452D01*
X3074452Y-13782976D01*
X3055405Y-13782976D01*
X3036357Y-13773452D01*
X3026833Y-13763928D01*
X3017309Y-13744881D01*
X3007786Y-13706786D01*
X3007786Y-13659167D01*
X3017309Y-13621071D01*
X3026833Y-13602024D01*
X3036357Y-13592500D01*
X3055405Y-13582976D01*
X3245881Y-13582976D02*
X3264928Y-13582976D01*
X3283976Y-13592500D01*
X3293500Y-13602024D01*
X3303024Y-13621071D01*
X3312548Y-13659167D01*
X3312548Y-13706786D01*
X3303024Y-13744881D01*
X3293500Y-13763928D01*
X3283976Y-13773452D01*
X3264928Y-13782976D01*
X3245881Y-13782976D01*
X3226833Y-13773452D01*
X3217309Y-13763928D01*
X3207786Y-13744881D01*
X3198262Y-13706786D01*
X3198262Y-13659167D01*
X3207786Y-13621071D01*
X3217309Y-13602024D01*
X3226833Y-13592500D01*
X3245881Y-13582976D01*
X3398262Y-13782976D02*
X3398262Y-13649643D01*
X3398262Y-13668690D02*
X3407786Y-13659167D01*
X3426833Y-13649643D01*
X3455405Y-13649643D01*
X3474452Y-13659167D01*
X3483976Y-13678214D01*
X3483976Y-13782976D01*
X3483976Y-13678214D02*
X3493500Y-13659167D01*
X3512548Y-13649643D01*
X3541119Y-13649643D01*
X3560167Y-13659167D01*
X3569690Y-13678214D01*
X3569690Y-13782976D01*
X3664928Y-13782976D02*
X3664928Y-13649643D01*
X3664928Y-13668690D02*
X3674452Y-13659167D01*
X3693500Y-13649643D01*
X3722071Y-13649643D01*
X3741119Y-13659167D01*
X3750643Y-13678214D01*
X3750643Y-13782976D01*
X3750643Y-13678214D02*
X3760167Y-13659167D01*
X3779214Y-13649643D01*
X3807786Y-13649643D01*
X3826833Y-13659167D01*
X3836357Y-13678214D01*
X3836357Y-13782976D01*
X4226833Y-13573452D02*
X4055405Y-13830595D01*
X4483976Y-13582976D02*
X4503024Y-13582976D01*
X4522071Y-13592500D01*
X4531595Y-13602024D01*
X4541119Y-13621071D01*
X4550643Y-13659167D01*
X4550643Y-13706786D01*
X4541119Y-13744881D01*
X4531595Y-13763928D01*
X4522071Y-13773452D01*
X4503024Y-13782976D01*
X4483976Y-13782976D01*
X4464929Y-13773452D01*
X4455405Y-13763928D01*
X4445881Y-13744881D01*
X4436357Y-13706786D01*
X4436357Y-13659167D01*
X4445881Y-13621071D01*
X4455405Y-13602024D01*
X4464929Y-13592500D01*
X4483976Y-13582976D01*
X4636357Y-13763928D02*
X4645881Y-13773452D01*
X4636357Y-13782976D01*
X4626833Y-13773452D01*
X4636357Y-13763928D01*
X4636357Y-13782976D01*
X4769690Y-13582976D02*
X4788738Y-13582976D01*
X4807786Y-13592500D01*
X4817310Y-13602024D01*
X4826833Y-13621071D01*
X4836357Y-13659167D01*
X4836357Y-13706786D01*
X4826833Y-13744881D01*
X4817310Y-13763928D01*
X4807786Y-13773452D01*
X4788738Y-13782976D01*
X4769690Y-13782976D01*
X4750643Y-13773452D01*
X4741119Y-13763928D01*
X4731595Y-13744881D01*
X4722071Y-13706786D01*
X4722071Y-13659167D01*
X4731595Y-13621071D01*
X4741119Y-13602024D01*
X4750643Y-13592500D01*
X4769690Y-13582976D01*
X4903024Y-13582976D02*
X5036357Y-13582976D01*
X4950643Y-13782976D01*
X5150643Y-13582976D02*
X5169690Y-13582976D01*
X5188738Y-13592500D01*
X5198262Y-13602024D01*
X5207786Y-13621071D01*
X5217310Y-13659167D01*
X5217310Y-13706786D01*
X5207786Y-13744881D01*
X5198262Y-13763928D01*
X5188738Y-13773452D01*
X5169690Y-13782976D01*
X5150643Y-13782976D01*
X5131595Y-13773452D01*
X5122071Y-13763928D01*
X5112548Y-13744881D01*
X5103024Y-13706786D01*
X5103024Y-13659167D01*
X5112548Y-13621071D01*
X5122071Y-13602024D01*
X5131595Y-13592500D01*
X5150643Y-13582976D01*
X5312548Y-13782976D02*
X5350643Y-13782976D01*
X5369690Y-13773452D01*
X5379214Y-13763928D01*
X5398262Y-13735357D01*
X5407786Y-13697262D01*
X5407786Y-13621071D01*
X5398262Y-13602024D01*
X5388738Y-13592500D01*
X5369690Y-13582976D01*
X5331595Y-13582976D01*
X5312548Y-13592500D01*
X5303024Y-13602024D01*
X5293500Y-13621071D01*
X5293500Y-13668690D01*
X5303024Y-13687738D01*
X5312548Y-13697262D01*
X5331595Y-13706786D01*
X5369690Y-13706786D01*
X5388738Y-13697262D01*
X5398262Y-13687738D01*
X5407786Y-13668690D01*
X5483976Y-13582976D02*
X5483976Y-13621071D01*
X5560167Y-13582976D02*
X5560167Y-13621071D01*
X5855405Y-13859167D02*
X5845881Y-13849643D01*
X5826833Y-13821071D01*
X5817309Y-13802024D01*
X5807786Y-13773452D01*
X5798262Y-13725833D01*
X5798262Y-13687738D01*
X5807786Y-13640119D01*
X5817309Y-13611548D01*
X5826833Y-13592500D01*
X5845881Y-13563928D01*
X5855405Y-13554405D01*
X6017309Y-13649643D02*
X6017309Y-13782976D01*
X5969690Y-13573452D02*
X5922071Y-13716309D01*
X6045881Y-13716309D01*
X6274452Y-13782976D02*
X6274452Y-13582976D01*
X6360167Y-13782976D02*
X6360167Y-13678214D01*
X6350643Y-13659167D01*
X6331595Y-13649643D01*
X6303024Y-13649643D01*
X6283976Y-13659167D01*
X6274452Y-13668690D01*
X6483976Y-13782976D02*
X6464928Y-13773452D01*
X6455405Y-13763928D01*
X6445881Y-13744881D01*
X6445881Y-13687738D01*
X6455405Y-13668690D01*
X6464928Y-13659167D01*
X6483976Y-13649643D01*
X6512548Y-13649643D01*
X6531595Y-13659167D01*
X6541119Y-13668690D01*
X6550643Y-13687738D01*
X6550643Y-13744881D01*
X6541119Y-13763928D01*
X6531595Y-13773452D01*
X6512548Y-13782976D01*
X6483976Y-13782976D01*
X6664928Y-13782976D02*
X6645881Y-13773452D01*
X6636357Y-13754405D01*
X6636357Y-13582976D01*
X6817309Y-13773452D02*
X6798262Y-13782976D01*
X6760167Y-13782976D01*
X6741119Y-13773452D01*
X6731595Y-13754405D01*
X6731595Y-13678214D01*
X6741119Y-13659167D01*
X6760167Y-13649643D01*
X6798262Y-13649643D01*
X6817309Y-13659167D01*
X6826833Y-13678214D01*
X6826833Y-13697262D01*
X6731595Y-13716309D01*
X6903024Y-13773452D02*
X6922071Y-13782976D01*
X6960167Y-13782976D01*
X6979214Y-13773452D01*
X6988738Y-13754405D01*
X6988738Y-13744881D01*
X6979214Y-13725833D01*
X6960167Y-13716309D01*
X6931595Y-13716309D01*
X6912548Y-13706786D01*
X6903024Y-13687738D01*
X6903024Y-13678214D01*
X6912548Y-13659167D01*
X6931595Y-13649643D01*
X6960167Y-13649643D01*
X6979214Y-13659167D01*
X7055405Y-13859167D02*
X7064928Y-13849643D01*
X7083976Y-13821071D01*
X7093500Y-13802024D01*
X7103024Y-13773452D01*
X7112548Y-13725833D01*
X7112548Y-13687738D01*
X7103024Y-13640119D01*
X7093500Y-13611548D01*
X7083976Y-13592500D01*
X7064928Y-13563928D01*
X7055405Y-13554405D01*
X2083500Y-13892500D02*
X2283500Y-14092500D01*
X2283500Y-13892500D02*
X2083500Y-14092500D01*
X2183500Y-14092500D02*
X2283500Y-13992500D01*
X2183500Y-13892500D01*
X2083500Y-13992500D01*
X2183500Y-14092500D01*
X2531595Y-13902024D02*
X2541119Y-13892500D01*
X2560167Y-13882976D01*
X2607786Y-13882976D01*
X2626833Y-13892500D01*
X2636357Y-13902024D01*
X2645881Y-13921071D01*
X2645881Y-13940119D01*
X2636357Y-13968690D01*
X2522071Y-14082976D01*
X2645881Y-14082976D01*
X2731595Y-14063928D02*
X2741119Y-14073452D01*
X2731595Y-14082976D01*
X2722071Y-14073452D01*
X2731595Y-14063928D01*
X2731595Y-14082976D01*
X2922071Y-13882976D02*
X2826833Y-13882976D01*
X2817309Y-13978214D01*
X2826833Y-13968690D01*
X2845881Y-13959167D01*
X2893500Y-13959167D01*
X2912548Y-13968690D01*
X2922071Y-13978214D01*
X2931595Y-13997262D01*
X2931595Y-14044881D01*
X2922071Y-14063928D01*
X2912548Y-14073452D01*
X2893500Y-14082976D01*
X2845881Y-14082976D01*
X2826833Y-14073452D01*
X2817309Y-14063928D01*
X3103024Y-13949643D02*
X3103024Y-14082976D01*
X3055405Y-13873452D02*
X3007786Y-14016309D01*
X3131595Y-14016309D01*
X3245881Y-13882976D02*
X3264928Y-13882976D01*
X3283976Y-13892500D01*
X3293500Y-13902024D01*
X3303024Y-13921071D01*
X3312548Y-13959167D01*
X3312548Y-14006786D01*
X3303024Y-14044881D01*
X3293500Y-14063928D01*
X3283976Y-14073452D01*
X3264928Y-14082976D01*
X3245881Y-14082976D01*
X3226833Y-14073452D01*
X3217309Y-14063928D01*
X3207786Y-14044881D01*
X3198262Y-14006786D01*
X3198262Y-13959167D01*
X3207786Y-13921071D01*
X3217309Y-13902024D01*
X3226833Y-13892500D01*
X3245881Y-13882976D01*
X3398262Y-14082976D02*
X3398262Y-13949643D01*
X3398262Y-13968690D02*
X3407786Y-13959167D01*
X3426833Y-13949643D01*
X3455405Y-13949643D01*
X3474452Y-13959167D01*
X3483976Y-13978214D01*
X3483976Y-14082976D01*
X3483976Y-13978214D02*
X3493500Y-13959167D01*
X3512548Y-13949643D01*
X3541119Y-13949643D01*
X3560167Y-13959167D01*
X3569690Y-13978214D01*
X3569690Y-14082976D01*
X3664928Y-14082976D02*
X3664928Y-13949643D01*
X3664928Y-13968690D02*
X3674452Y-13959167D01*
X3693500Y-13949643D01*
X3722071Y-13949643D01*
X3741119Y-13959167D01*
X3750643Y-13978214D01*
X3750643Y-14082976D01*
X3750643Y-13978214D02*
X3760167Y-13959167D01*
X3779214Y-13949643D01*
X3807786Y-13949643D01*
X3826833Y-13959167D01*
X3836357Y-13978214D01*
X3836357Y-14082976D01*
X4226833Y-13873452D02*
X4055405Y-14130595D01*
X4483976Y-13882976D02*
X4503024Y-13882976D01*
X4522071Y-13892500D01*
X4531595Y-13902024D01*
X4541119Y-13921071D01*
X4550643Y-13959167D01*
X4550643Y-14006786D01*
X4541119Y-14044881D01*
X4531595Y-14063928D01*
X4522071Y-14073452D01*
X4503024Y-14082976D01*
X4483976Y-14082976D01*
X4464929Y-14073452D01*
X4455405Y-14063928D01*
X4445881Y-14044881D01*
X4436357Y-14006786D01*
X4436357Y-13959167D01*
X4445881Y-13921071D01*
X4455405Y-13902024D01*
X4464929Y-13892500D01*
X4483976Y-13882976D01*
X4636357Y-14063928D02*
X4645881Y-14073452D01*
X4636357Y-14082976D01*
X4626833Y-14073452D01*
X4636357Y-14063928D01*
X4636357Y-14082976D01*
X4836357Y-14082976D02*
X4722071Y-14082976D01*
X4779214Y-14082976D02*
X4779214Y-13882976D01*
X4760167Y-13911548D01*
X4741119Y-13930595D01*
X4722071Y-13940119D01*
X4960167Y-13882976D02*
X4979214Y-13882976D01*
X4998262Y-13892500D01*
X5007786Y-13902024D01*
X5017310Y-13921071D01*
X5026833Y-13959167D01*
X5026833Y-14006786D01*
X5017310Y-14044881D01*
X5007786Y-14063928D01*
X4998262Y-14073452D01*
X4979214Y-14082976D01*
X4960167Y-14082976D01*
X4941119Y-14073452D01*
X4931595Y-14063928D01*
X4922071Y-14044881D01*
X4912548Y-14006786D01*
X4912548Y-13959167D01*
X4922071Y-13921071D01*
X4931595Y-13902024D01*
X4941119Y-13892500D01*
X4960167Y-13882976D01*
X5150643Y-13882976D02*
X5169690Y-13882976D01*
X5188738Y-13892500D01*
X5198262Y-13902024D01*
X5207786Y-13921071D01*
X5217310Y-13959167D01*
X5217310Y-14006786D01*
X5207786Y-14044881D01*
X5198262Y-14063928D01*
X5188738Y-14073452D01*
X5169690Y-14082976D01*
X5150643Y-14082976D01*
X5131595Y-14073452D01*
X5122071Y-14063928D01*
X5112548Y-14044881D01*
X5103024Y-14006786D01*
X5103024Y-13959167D01*
X5112548Y-13921071D01*
X5122071Y-13902024D01*
X5131595Y-13892500D01*
X5150643Y-13882976D01*
X5341119Y-13882976D02*
X5360167Y-13882976D01*
X5379214Y-13892500D01*
X5388738Y-13902024D01*
X5398262Y-13921071D01*
X5407786Y-13959167D01*
X5407786Y-14006786D01*
X5398262Y-14044881D01*
X5388738Y-14063928D01*
X5379214Y-14073452D01*
X5360167Y-14082976D01*
X5341119Y-14082976D01*
X5322071Y-14073452D01*
X5312548Y-14063928D01*
X5303024Y-14044881D01*
X5293500Y-14006786D01*
X5293500Y-13959167D01*
X5303024Y-13921071D01*
X5312548Y-13902024D01*
X5322071Y-13892500D01*
X5341119Y-13882976D01*
X5483976Y-13882976D02*
X5483976Y-13921071D01*
X5560167Y-13882976D02*
X5560167Y-13921071D01*
X5855405Y-14159167D02*
X5845881Y-14149643D01*
X5826833Y-14121071D01*
X5817309Y-14102024D01*
X5807786Y-14073452D01*
X5798262Y-14025833D01*
X5798262Y-13987738D01*
X5807786Y-13940119D01*
X5817309Y-13911548D01*
X5826833Y-13892500D01*
X5845881Y-13863928D01*
X5855405Y-13854405D01*
X5922071Y-13902024D02*
X5931595Y-13892500D01*
X5950643Y-13882976D01*
X5998262Y-13882976D01*
X6017309Y-13892500D01*
X6026833Y-13902024D01*
X6036357Y-13921071D01*
X6036357Y-13940119D01*
X6026833Y-13968690D01*
X5912548Y-14082976D01*
X6036357Y-14082976D01*
X6274452Y-14082976D02*
X6274452Y-13882976D01*
X6360167Y-14082976D02*
X6360167Y-13978214D01*
X6350643Y-13959167D01*
X6331595Y-13949643D01*
X6303024Y-13949643D01*
X6283976Y-13959167D01*
X6274452Y-13968690D01*
X6483976Y-14082976D02*
X6464928Y-14073452D01*
X6455405Y-14063928D01*
X6445881Y-14044881D01*
X6445881Y-13987738D01*
X6455405Y-13968690D01*
X6464928Y-13959167D01*
X6483976Y-13949643D01*
X6512548Y-13949643D01*
X6531595Y-13959167D01*
X6541119Y-13968690D01*
X6550643Y-13987738D01*
X6550643Y-14044881D01*
X6541119Y-14063928D01*
X6531595Y-14073452D01*
X6512548Y-14082976D01*
X6483976Y-14082976D01*
X6664928Y-14082976D02*
X6645881Y-14073452D01*
X6636357Y-14054405D01*
X6636357Y-13882976D01*
X6817309Y-14073452D02*
X6798262Y-14082976D01*
X6760167Y-14082976D01*
X6741119Y-14073452D01*
X6731595Y-14054405D01*
X6731595Y-13978214D01*
X6741119Y-13959167D01*
X6760167Y-13949643D01*
X6798262Y-13949643D01*
X6817309Y-13959167D01*
X6826833Y-13978214D01*
X6826833Y-13997262D01*
X6731595Y-14016309D01*
X6903024Y-14073452D02*
X6922071Y-14082976D01*
X6960167Y-14082976D01*
X6979214Y-14073452D01*
X6988738Y-14054405D01*
X6988738Y-14044881D01*
X6979214Y-14025833D01*
X6960167Y-14016309D01*
X6931595Y-14016309D01*
X6912548Y-14006786D01*
X6903024Y-13987738D01*
X6903024Y-13978214D01*
X6912548Y-13959167D01*
X6931595Y-13949643D01*
X6960167Y-13949643D01*
X6979214Y-13959167D01*
X7055405Y-14159167D02*
X7064928Y-14149643D01*
X7083976Y-14121071D01*
X7093500Y-14102024D01*
X7103024Y-14073452D01*
X7112548Y-14025833D01*
X7112548Y-13987738D01*
X7103024Y-13940119D01*
X7093500Y-13911548D01*
X7083976Y-13892500D01*
X7064928Y-13863928D01*
X7055405Y-13854405D01*
X2183500Y-14212500D02*
X2183500Y-14412500D01*
X2083500Y-14312500D02*
X2283500Y-14312500D01*
X2283500Y-14312500D02*
G75*
G03*
X2283500Y-14312500I-100000J0D01*
G01*
X2522071Y-14202976D02*
X2645881Y-14202976D01*
X2579214Y-14279167D01*
X2607786Y-14279167D01*
X2626833Y-14288690D01*
X2636357Y-14298214D01*
X2645881Y-14317262D01*
X2645881Y-14364881D01*
X2636357Y-14383928D01*
X2626833Y-14393452D01*
X2607786Y-14402976D01*
X2550643Y-14402976D01*
X2531595Y-14393452D01*
X2522071Y-14383928D01*
X2731595Y-14383928D02*
X2741119Y-14393452D01*
X2731595Y-14402976D01*
X2722071Y-14393452D01*
X2731595Y-14383928D01*
X2731595Y-14402976D01*
X2807786Y-14202976D02*
X2941119Y-14202976D01*
X2855405Y-14402976D01*
X3055405Y-14202976D02*
X3074452Y-14202976D01*
X3093500Y-14212500D01*
X3103024Y-14222024D01*
X3112548Y-14241071D01*
X3122071Y-14279167D01*
X3122071Y-14326786D01*
X3112548Y-14364881D01*
X3103024Y-14383928D01*
X3093500Y-14393452D01*
X3074452Y-14402976D01*
X3055405Y-14402976D01*
X3036357Y-14393452D01*
X3026833Y-14383928D01*
X3017309Y-14364881D01*
X3007786Y-14326786D01*
X3007786Y-14279167D01*
X3017309Y-14241071D01*
X3026833Y-14222024D01*
X3036357Y-14212500D01*
X3055405Y-14202976D01*
X3245881Y-14202976D02*
X3264928Y-14202976D01*
X3283976Y-14212500D01*
X3293500Y-14222024D01*
X3303024Y-14241071D01*
X3312548Y-14279167D01*
X3312548Y-14326786D01*
X3303024Y-14364881D01*
X3293500Y-14383928D01*
X3283976Y-14393452D01*
X3264928Y-14402976D01*
X3245881Y-14402976D01*
X3226833Y-14393452D01*
X3217309Y-14383928D01*
X3207786Y-14364881D01*
X3198262Y-14326786D01*
X3198262Y-14279167D01*
X3207786Y-14241071D01*
X3217309Y-14222024D01*
X3226833Y-14212500D01*
X3245881Y-14202976D01*
X3398262Y-14402976D02*
X3398262Y-14269643D01*
X3398262Y-14288690D02*
X3407786Y-14279167D01*
X3426833Y-14269643D01*
X3455405Y-14269643D01*
X3474452Y-14279167D01*
X3483976Y-14298214D01*
X3483976Y-14402976D01*
X3483976Y-14298214D02*
X3493500Y-14279167D01*
X3512548Y-14269643D01*
X3541119Y-14269643D01*
X3560167Y-14279167D01*
X3569690Y-14298214D01*
X3569690Y-14402976D01*
X3664928Y-14402976D02*
X3664928Y-14269643D01*
X3664928Y-14288690D02*
X3674452Y-14279167D01*
X3693500Y-14269643D01*
X3722071Y-14269643D01*
X3741119Y-14279167D01*
X3750643Y-14298214D01*
X3750643Y-14402976D01*
X3750643Y-14298214D02*
X3760167Y-14279167D01*
X3779214Y-14269643D01*
X3807786Y-14269643D01*
X3826833Y-14279167D01*
X3836357Y-14298214D01*
X3836357Y-14402976D01*
X4226833Y-14193452D02*
X4055405Y-14450595D01*
X4483976Y-14202976D02*
X4503024Y-14202976D01*
X4522071Y-14212500D01*
X4531595Y-14222024D01*
X4541119Y-14241071D01*
X4550643Y-14279167D01*
X4550643Y-14326786D01*
X4541119Y-14364881D01*
X4531595Y-14383928D01*
X4522071Y-14393452D01*
X4503024Y-14402976D01*
X4483976Y-14402976D01*
X4464929Y-14393452D01*
X4455405Y-14383928D01*
X4445881Y-14364881D01*
X4436357Y-14326786D01*
X4436357Y-14279167D01*
X4445881Y-14241071D01*
X4455405Y-14222024D01*
X4464929Y-14212500D01*
X4483976Y-14202976D01*
X4636357Y-14383928D02*
X4645881Y-14393452D01*
X4636357Y-14402976D01*
X4626833Y-14393452D01*
X4636357Y-14383928D01*
X4636357Y-14402976D01*
X4836357Y-14402976D02*
X4722071Y-14402976D01*
X4779214Y-14402976D02*
X4779214Y-14202976D01*
X4760167Y-14231548D01*
X4741119Y-14250595D01*
X4722071Y-14260119D01*
X5007786Y-14269643D02*
X5007786Y-14402976D01*
X4960167Y-14193452D02*
X4912548Y-14336309D01*
X5036357Y-14336309D01*
X5207786Y-14202976D02*
X5112548Y-14202976D01*
X5103024Y-14298214D01*
X5112548Y-14288690D01*
X5131595Y-14279167D01*
X5179214Y-14279167D01*
X5198262Y-14288690D01*
X5207786Y-14298214D01*
X5217310Y-14317262D01*
X5217310Y-14364881D01*
X5207786Y-14383928D01*
X5198262Y-14393452D01*
X5179214Y-14402976D01*
X5131595Y-14402976D01*
X5112548Y-14393452D01*
X5103024Y-14383928D01*
X5283976Y-14202976D02*
X5417310Y-14202976D01*
X5331595Y-14402976D01*
X5483976Y-14202976D02*
X5483976Y-14241071D01*
X5560167Y-14202976D02*
X5560167Y-14241071D01*
X5855405Y-14479167D02*
X5845881Y-14469643D01*
X5826833Y-14441071D01*
X5817309Y-14422024D01*
X5807786Y-14393452D01*
X5798262Y-14345833D01*
X5798262Y-14307738D01*
X5807786Y-14260119D01*
X5817309Y-14231548D01*
X5826833Y-14212500D01*
X5845881Y-14183928D01*
X5855405Y-14174405D01*
X6036357Y-14402976D02*
X5922071Y-14402976D01*
X5979214Y-14402976D02*
X5979214Y-14202976D01*
X5960167Y-14231548D01*
X5941119Y-14250595D01*
X5922071Y-14260119D01*
X6274452Y-14402976D02*
X6274452Y-14202976D01*
X6360167Y-14402976D02*
X6360167Y-14298214D01*
X6350643Y-14279167D01*
X6331595Y-14269643D01*
X6303024Y-14269643D01*
X6283976Y-14279167D01*
X6274452Y-14288690D01*
X6483976Y-14402976D02*
X6464928Y-14393452D01*
X6455405Y-14383928D01*
X6445881Y-14364881D01*
X6445881Y-14307738D01*
X6455405Y-14288690D01*
X6464928Y-14279167D01*
X6483976Y-14269643D01*
X6512548Y-14269643D01*
X6531595Y-14279167D01*
X6541119Y-14288690D01*
X6550643Y-14307738D01*
X6550643Y-14364881D01*
X6541119Y-14383928D01*
X6531595Y-14393452D01*
X6512548Y-14402976D01*
X6483976Y-14402976D01*
X6664928Y-14402976D02*
X6645881Y-14393452D01*
X6636357Y-14374405D01*
X6636357Y-14202976D01*
X6817309Y-14393452D02*
X6798262Y-14402976D01*
X6760167Y-14402976D01*
X6741119Y-14393452D01*
X6731595Y-14374405D01*
X6731595Y-14298214D01*
X6741119Y-14279167D01*
X6760167Y-14269643D01*
X6798262Y-14269643D01*
X6817309Y-14279167D01*
X6826833Y-14298214D01*
X6826833Y-14317262D01*
X6731595Y-14336309D01*
X6893500Y-14479167D02*
X6903024Y-14469643D01*
X6922071Y-14441071D01*
X6931595Y-14422024D01*
X6941119Y-14393452D01*
X6950643Y-14345833D01*
X6950643Y-14307738D01*
X6941119Y-14260119D01*
X6931595Y-14231548D01*
X6922071Y-14212500D01*
X6903024Y-14183928D01*
X6893500Y-14174405D01*
M02*
